<svg width="32" height="32" viewBox="0 0 32 32" fill="none" xmlns="http://www.w3.org/2000/svg">
<path d="M16.2659 15.7334L14.3858 17.6134C13.3458 18.6534 13.3458 20.3467 14.3858 21.3867C15.4258 22.4267 17.1192 22.4267 18.1592 21.3867L21.1192 18.4267C23.1992 16.3467 23.1992 12.9734 21.1192 10.8801C19.0392 8.80007 15.6658 8.80007 13.5725 10.8801L10.3459 14.1067C8.55919 15.8934 8.55919 18.7867 10.3459 20.5734" stroke="#292D32" stroke-width="1.5" stroke-linecap="round" stroke-linejoin="round"/>
<path d="M16.0013 29.3334C23.3651 29.3334 29.3346 23.3639 29.3346 16.0001C29.3346 8.63628 23.3651 2.66675 16.0013 2.66675C8.63751 2.66675 2.66797 8.63628 2.66797 16.0001C2.66797 23.3639 8.63751 29.3334 16.0013 29.3334Z" stroke="#292D32" stroke-width="1.5" stroke-linecap="round" stroke-linejoin="round"/>
</svg>
