<svg width="24" height="24" viewBox="0 0 24 24" fill="none" xmlns="http://www.w3.org/2000/svg">
<g clip-path="url(#clip0_1556_12761)">
<path d="M10.8863 13.0981C10.8419 13.0884 10.7962 13.0869 10.7513 13.0935C10.3006 13.0411 9.96056 12.6597 9.95977 12.206C9.95977 12.1016 9.9183 12.0015 9.84447 11.9277C9.77064 11.8538 9.67051 11.8124 9.5661 11.8124C9.46169 11.8124 9.36156 11.8538 9.28774 11.9277C9.21391 12.0015 9.17243 12.1016 9.17243 12.206C9.17361 12.9635 9.68027 13.6271 10.4107 13.8276V14.2213C10.4107 14.3257 10.4522 14.4258 10.526 14.4996C10.5998 14.5735 10.7 14.6149 10.8044 14.6149C10.9088 14.6149 11.0089 14.5735 11.0828 14.4996C11.1566 14.4258 11.1981 14.3257 11.1981 14.2213V13.8514C12.0411 13.675 12.6141 12.8897 12.5256 12.033C12.4367 11.1763 11.7149 10.5253 10.8536 10.5251C10.36 10.5251 9.95977 10.1248 9.95977 9.63124C9.95977 9.13762 10.36 8.73741 10.8536 8.73741C11.3472 8.73741 11.7474 9.13758 11.7474 9.63124C11.7474 9.73564 11.7889 9.83577 11.8627 9.9096C11.9366 9.98343 12.0367 10.0249 12.1411 10.0249C12.2455 10.0249 12.3456 9.98343 12.4195 9.9096C12.4933 9.83577 12.5348 9.73564 12.5348 9.63124C12.5336 8.83583 11.9764 8.14976 11.1981 7.9856V7.62731C11.1981 7.5229 11.1566 7.42277 11.0828 7.34895C11.0089 7.27512 10.9088 7.23364 10.8044 7.23364C10.7 7.23364 10.5998 7.27512 10.526 7.34895C10.4522 7.42277 10.4107 7.5229 10.4107 7.62731V8.00966C9.59838 8.23145 9.07554 9.02016 9.18739 9.85479C9.29924 10.6894 10.0115 11.3124 10.8536 11.3122C11.3407 11.3122 11.738 11.7022 11.7468 12.1891C11.7559 12.676 11.373 13.0804 10.8863 13.0981Z" fill="black"/>
<path d="M5.14502 10.949C5.14502 14.1018 7.70082 16.6576 10.8536 16.6576C14.0064 16.6576 16.5622 14.1018 16.5622 10.949C16.5622 7.79616 14.0064 5.24036 10.8536 5.24036C7.70234 5.2438 5.14871 7.79768 5.14502 10.949ZM10.8536 6.0277C13.5716 6.0277 15.7749 8.23096 15.7749 10.949C15.7749 13.6669 13.5716 15.8702 10.8536 15.8702C8.13563 15.8702 5.93236 13.6669 5.93236 10.949C5.93546 8.23229 8.13696 6.0308 10.8536 6.0277Z" fill="black"/>
<path d="M18.5028 17.628L15.419 19.0851C15.2098 18.696 14.9017 18.3689 14.5257 18.1369C14.1498 17.905 13.7193 17.7762 13.2777 17.7637L10.4309 17.6855C9.98 17.6726 9.5378 17.5584 9.13704 17.3514L8.8474 17.2013C8.11661 16.8204 7.30453 16.622 6.48044 16.6228C5.65635 16.6237 4.84469 16.8239 4.11471 17.2063L4.13276 16.5501C4.1342 16.4984 4.12544 16.4469 4.10698 16.3986C4.08852 16.3503 4.06073 16.3061 4.0252 16.2686C3.98966 16.231 3.94707 16.2008 3.89986 16.1797C3.85266 16.1586 3.80176 16.147 3.75007 16.1456L0.62837 16.0597C0.576691 16.0583 0.525237 16.0671 0.476949 16.0855C0.42866 16.104 0.384483 16.1318 0.346942 16.1674C0.3094 16.2029 0.279231 16.2455 0.258157 16.2927C0.237082 16.3399 0.225517 16.3908 0.224121 16.4425L0.0355534 23.2928C0.0341119 23.3445 0.0428698 23.3959 0.0613267 23.4442C0.0797837 23.4926 0.107578 23.5368 0.143122 23.5743C0.178665 23.6119 0.221262 23.6421 0.268478 23.6632C0.315694 23.6843 0.366603 23.6959 0.418298 23.6973L3.53995 23.7832H3.55072C3.6533 23.7832 3.75184 23.7432 3.82537 23.6717C3.89889 23.6002 3.9416 23.5028 3.94439 23.4002L3.9534 23.0725L4.76436 22.6383C5.08255 22.467 5.45491 22.4263 5.80261 22.5247L10.6454 23.8839C10.6539 23.8864 10.6623 23.8883 10.671 23.8903C11.021 23.9635 11.3777 24.0002 11.7353 24C12.4927 24.0005 13.2412 23.8371 13.9295 23.5212C13.9465 23.5135 13.9628 23.5044 13.9783 23.4942L21 18.9525C21.0843 18.8979 21.1445 18.8133 21.1685 18.7158C21.1925 18.6184 21.1783 18.5154 21.1289 18.4281C20.6077 17.5031 19.4514 17.1507 18.5028 17.628ZM0.833472 22.921L1.00029 16.8576L3.33485 16.9218L3.16803 22.9855L0.833472 22.921ZM13.5749 22.818C12.7197 23.2039 11.7646 23.3106 10.8453 23.1227L6.01559 21.767C5.47214 21.6133 4.89026 21.677 4.39283 21.9444L3.9784 22.1664L4.08931 18.1349C4.73407 17.7061 5.48208 17.4581 6.25532 17.4169C7.02856 17.3756 7.79871 17.5426 8.48542 17.9004L8.77511 18.0505C9.28134 18.3119 9.83984 18.4562 10.4093 18.4727L13.2563 18.5509C14.056 18.574 14.7351 19.1433 14.8974 19.9268L10.6568 19.8097C10.4393 19.8038 10.2585 19.9753 10.2523 20.1925C10.2494 20.2969 10.2882 20.3981 10.3599 20.4739C10.4317 20.5498 10.5307 20.594 10.635 20.5969L15.3148 20.7257H15.3258C15.4283 20.7256 15.5268 20.6856 15.6002 20.6141C15.6736 20.5426 15.7163 20.4452 15.7191 20.3428C15.7239 20.1717 15.7112 20.0006 15.6811 19.8321L18.844 18.3375C18.8471 18.3362 18.8502 18.3347 18.8533 18.3331C19.0723 18.2222 19.3201 18.1811 19.5632 18.2151C19.8064 18.2492 20.0332 18.3568 20.2134 18.5236L13.5749 22.818ZM11.2473 4.13353V0.393669C11.2473 0.289262 11.2058 0.18913 11.132 0.115303C11.0581 0.0414758 10.958 0 10.8536 0C10.7492 0 10.649 0.0414758 10.5752 0.115303C10.5014 0.18913 10.4599 0.289262 10.4599 0.393669V4.13353C10.4599 4.23794 10.5014 4.33807 10.5752 4.41189C10.649 4.48572 10.7492 4.5272 10.8536 4.5272C10.958 4.5272 11.0581 4.48572 11.132 4.41189C11.2058 4.33807 11.2473 4.23794 11.2473 4.13353ZM14.1998 4.13353V2.36202C14.1998 2.25761 14.1583 2.15748 14.0845 2.08365C14.0106 2.00982 13.9105 1.96835 13.8061 1.96835C13.7017 1.96835 13.6016 2.00982 13.5277 2.08365C13.4539 2.15748 13.4124 2.25761 13.4124 2.36202V4.13353C13.4124 4.23794 13.4539 4.33807 13.5277 4.41189C13.6016 4.48572 13.7017 4.5272 13.8061 4.5272C13.9105 4.5272 14.0106 4.48572 14.0845 4.41189C14.1583 4.33807 14.1998 4.23794 14.1998 4.13353ZM8.29473 4.13353V2.36202C8.29473 2.25761 8.25326 2.15748 8.17943 2.08365C8.1056 2.00982 8.00547 1.96835 7.90107 1.96835C7.79666 1.96835 7.69653 2.00982 7.6227 2.08365C7.54887 2.15748 7.5074 2.25761 7.5074 2.36202V4.13353C7.5074 4.23794 7.54887 4.33807 7.6227 4.41189C7.69653 4.48572 7.79666 4.5272 7.90107 4.5272C8.00547 4.5272 8.1056 4.48572 8.17943 4.41189C8.25326 4.33807 8.29473 4.23794 8.29473 4.13353Z" fill="black"/>
</g>
<defs>
<clipPath id="clip0_1556_12761">
<rect width="24" height="24" fill="white"/>
</clipPath>
</defs>
</svg>
