<svg width="37" height="36" viewBox="0 0 37 36" fill="none" xmlns="http://www.w3.org/2000/svg">
<path d="M11.253 4.43081V1.75829C11.253 0.788767 10.4643 0 9.49475 0H3.16492C2.1954 0 1.40663 0.788767 1.40663 1.75829V4.96568C0.559065 5.5341 0 6.50081 0 7.5958C0 8.53099 0.407993 9.37237 1.05497 9.95225V30.8905V30.901L6.32983 36L10.9036 31.5788H30.7348C33.6434 31.5788 36.0097 29.2125 36.0097 26.3039V4.43081H11.253ZM3.51657 2.10994H9.14309V4.43088H3.51657V2.10994ZM9.49475 30.0059L6.32983 33.0654L3.16492 30.006V28.8058C3.85318 28.2889 4.83726 28.3429 5.46321 28.9688L6.32983 29.8355L7.19646 28.9688C7.52856 28.6367 7.9701 28.4539 8.43977 28.4539C8.82547 28.4539 9.19204 28.5774 9.49475 28.8054V30.0059ZM3.16492 26.4913V10.7607H5.27486V26.4927C4.58603 26.2986 3.85381 26.2973 3.16492 26.4913ZM9.49475 26.4913C8.80592 26.2973 8.07363 26.2987 7.3848 26.4927V10.7607H9.49475V26.4913ZM9.49475 8.65077H3.16492C2.5832 8.65077 2.10994 8.17751 2.10994 7.5958C2.10994 7.01409 2.5832 6.54083 3.16492 6.54083H9.49475C10.0765 6.54083 10.5497 7.01409 10.5497 7.5958C10.5497 8.17751 10.0765 8.65077 9.49475 8.65077ZM31.0865 29.4488V26.6556H33.8798C33.717 28.1203 32.5512 29.2861 31.0865 29.4488ZM33.8998 24.5457H28.9766V29.4689H11.6047V9.95225C12.2517 9.37237 12.6597 8.53092 12.6597 7.5958C12.6597 7.22599 12.5953 6.87103 12.4782 6.54083H33.8998V24.5457Z" fill="black"/>
<path d="M27.3605 10.5498C25.9852 10.5498 24.8126 11.4318 24.3771 12.6597H21.9745C21.5391 11.4318 20.3664 10.5498 18.9911 10.5498C17.246 10.5498 15.8262 11.9696 15.8262 13.7147C15.8262 15.0901 16.7082 16.2627 17.9361 16.6982V18.749C16.7082 19.1845 15.8262 20.3572 15.8262 21.7325C15.8262 23.4776 17.246 24.8974 18.9911 24.8974C20.7362 24.8974 22.156 23.4776 22.156 21.7325C22.156 20.3572 21.274 19.1845 20.0461 18.749V16.6982C20.9438 16.3798 21.6562 15.6674 21.9745 14.7697H24.3771C24.8126 15.9976 25.9852 16.8796 27.3605 16.8796C29.1057 16.8796 30.5254 15.4599 30.5254 13.7147C30.5254 11.9696 29.1057 10.5498 27.3605 10.5498ZM18.9911 22.7875C18.4094 22.7875 17.9361 22.3142 17.9361 21.7325C17.9361 21.1508 18.4094 20.6775 18.9911 20.6775C19.5728 20.6775 20.0461 21.1508 20.0461 21.7325C20.0461 22.3142 19.5728 22.7875 18.9911 22.7875ZM18.9911 14.7697C18.4094 14.7697 17.9361 14.2964 17.9361 13.7147C17.9361 13.133 18.4094 12.6597 18.9911 12.6597C19.5728 12.6597 20.0461 13.133 20.0461 13.7147C20.0461 14.2964 19.5728 14.7697 18.9911 14.7697ZM27.3605 14.7697C26.7788 14.7697 26.3056 14.2964 26.3056 13.7147C26.3056 13.133 26.7788 12.6597 27.3605 12.6597C27.9422 12.6597 28.4155 13.133 28.4155 13.7147C28.4155 14.2964 27.9422 14.7697 27.3605 14.7697Z" fill="black"/>
</svg>
