<svg width="36" height="36" viewBox="0 0 36 36" fill="none" xmlns="http://www.w3.org/2000/svg">
<path fill-rule="evenodd" clip-rule="evenodd" d="M10.9171 32.0869C10.9171 32.0869 10.9172 32.088 10.9177 32.0901C10.9174 32.0879 10.9172 32.0869 10.9171 32.0869ZM10.9198 32.0977C10.9302 32.1293 10.9776 32.2301 11.1751 32.3935C11.4548 32.6251 11.9231 32.8807 12.5947 33.1158C13.9281 33.5825 15.839 33.8906 17.9995 33.8906C20.16 33.8906 22.0708 33.5825 23.4042 33.1158C24.0758 32.8807 24.5441 32.6251 24.8239 32.3935C25.0214 32.2301 25.0687 32.1293 25.0791 32.0977C25.0687 32.066 25.0214 31.9652 24.8239 31.8018C24.5441 31.5702 24.0758 31.3146 23.4042 31.0795C22.0708 30.6128 20.16 30.3047 17.9995 30.3047C15.839 30.3047 13.9281 30.6128 12.5947 31.0795C11.9231 31.3146 11.4548 31.5702 11.1751 31.8018C10.9776 31.9652 10.9302 32.066 10.9198 32.0977ZM25.0818 32.0869C25.0817 32.0869 25.0815 32.0879 25.0813 32.0901C25.0817 32.088 25.0819 32.0869 25.0818 32.0869ZM25.0813 32.1052C25.0815 32.1074 25.0817 32.1084 25.0818 32.1084C25.0818 32.1084 25.0817 32.1073 25.0813 32.1052ZM10.9177 32.1052C10.9172 32.1073 10.9171 32.1084 10.9171 32.1084C10.9172 32.1084 10.9174 32.1074 10.9177 32.1052ZM11.8979 35.1067C13.5092 35.6707 15.6665 36 17.9995 36C20.3325 36 22.4897 35.6707 24.101 35.1067C24.9018 34.8265 25.625 34.4685 26.1686 34.0187C26.7056 33.5744 27.1903 32.9306 27.1903 32.0977C27.1903 31.2647 26.7056 30.621 26.1686 30.1766C25.625 29.7268 24.9018 29.3688 24.101 29.0886C22.4897 28.5246 20.3325 28.1953 17.9995 28.1953C15.6665 28.1953 13.5092 28.5246 11.8979 29.0886C11.0971 29.3688 10.3739 29.7268 9.83027 30.1766C9.29334 30.6209 8.80859 31.2647 8.80859 32.0977C8.80859 32.9306 9.29334 33.5744 9.83027 34.0187C10.3739 34.4685 11.0971 34.8265 11.8979 35.1067Z" fill="black"/>
<path fill-rule="evenodd" clip-rule="evenodd" d="M9.78906 21.9375H26.2084V5.48437H9.78906V21.9375ZM11.8984 19.8281V7.59375H24.0991V19.8281H11.8984Z" fill="black"/>
<path fill-rule="evenodd" clip-rule="evenodd" d="M0 27.4219H2.2683L11.3994 21.78L10.2906 19.9856L2.10937 25.0405V2.38134L10.2906 7.4363L11.3994 5.64182L2.2683 -1.90735e-06H0V27.4219Z" fill="black"/>
<path fill-rule="evenodd" clip-rule="evenodd" d="M1.10999 19.7238L11.0944 17.1222L10.5625 15.081L0.578125 17.6825L1.10999 19.7238Z" fill="black"/>
<path fill-rule="evenodd" clip-rule="evenodd" d="M10.8281 17.1562H25.1719V15.0469H10.8281V17.1562Z" fill="black"/>
<path fill-rule="evenodd" clip-rule="evenodd" d="M0.578125 9.75137L10.5625 12.3412L11.0921 10.2994L1.10774 7.70956L0.578125 9.75137Z" fill="black"/>
<path fill-rule="evenodd" clip-rule="evenodd" d="M10.8281 12.375H25.1719V10.2656H10.8281V12.375Z" fill="black"/>
<path fill-rule="evenodd" clip-rule="evenodd" d="M16.6641 20.8828V6.53906H14.5547V20.8828H16.6641Z" fill="black"/>
<path fill-rule="evenodd" clip-rule="evenodd" d="M21.4453 20.8828V6.53906H19.3359V20.8828H21.4453Z" fill="black"/>
<path fill-rule="evenodd" clip-rule="evenodd" d="M7.17188 23.6953V3.65625H5.0625V23.6953H7.17188Z" fill="black"/>
<path fill-rule="evenodd" clip-rule="evenodd" d="M33.7326 27.4219H36.0009V-1.90735e-06H33.7326L24.6016 5.64182L25.7103 7.4363L33.8916 2.38134V25.0405L25.7103 19.9856L24.6016 21.78L33.7326 27.4219Z" fill="black"/>
<path fill-rule="evenodd" clip-rule="evenodd" d="M35.4225 17.6825L25.4381 15.081L24.9062 17.1222L34.8906 19.7238L35.4225 17.6825Z" fill="black"/>
<path fill-rule="evenodd" clip-rule="evenodd" d="M34.8906 7.70956L24.9062 10.2994L25.4359 12.3412L35.4202 9.75137L34.8906 7.70956Z" fill="black"/>
<path fill-rule="evenodd" clip-rule="evenodd" d="M30.9375 23.6953V3.65625H28.8281V23.6953H30.9375Z" fill="black"/>
</svg>
