<svg width="36" height="36" viewBox="0 0 36 36" fill="none" xmlns="http://www.w3.org/2000/svg">
<path d="M0 0V36H36V0H0ZM33.8906 2.10938V4.28906H2.10938V2.10938H33.8906ZM2.10938 33.8906V6.39844H33.8906V33.8906H2.10938Z" fill="black"/>
<path d="M14.8359 8.50781H4.28906V14.8359H14.8359V8.50781ZM12.7266 12.7266H6.39844V10.6172H12.7266V12.7266Z" fill="black"/>
<path d="M4.28906 31.7109H23.2734V25.3828H4.28906V31.7109ZM6.39844 27.4922H21.1641V29.6016H6.39844V27.4922Z" fill="black"/>
<path d="M8.50781 23.2734H23.2734V16.9453H8.50781V23.2734ZM10.6172 19.0547H21.1641V21.1641H10.6172V19.0547Z" fill="black"/>
<path d="M29.6017 10.6172H23.5295L20.1095 7.19714L15.6348 11.6719L20.1095 16.1466L23.5295 12.7266H27.4923V25.1268L24.0723 28.5469L28.547 33.0216L33.0217 28.5469L29.6017 25.1268V10.6172ZM20.1095 13.1635L18.6178 11.6719L20.1095 10.1802L21.6012 11.6719L20.1095 13.1635ZM28.547 30.0385L27.0553 28.5469L28.547 27.0552L30.0387 28.5469L28.547 30.0385Z" fill="black"/>
</svg>
