<svg width="41" height="36" viewBox="0 0 41 36" fill="none" xmlns="http://www.w3.org/2000/svg">
<path d="M40.96 31.2V0H0V31.2H14.48V33.6H7.28V36H33.68V33.6H26.48V31.2H40.96ZM24.08 33.6H16.88V31.2H24.08V33.6ZM2.4 28.8V2.4H38.56V28.8H2.4Z" fill="black"/>
<path d="M28.878 20.8581V11.2581L21.678 7.65812V4.7998H19.278V7.65812L12.078 11.2581V20.8581L7.94141 22.9264L9.01469 25.0731L13.278 22.9415L20.478 26.5415L27.678 22.9415L31.9414 25.0732L33.0147 22.9265L28.878 20.8581ZM19.278 23.2582L14.478 20.8582V13.9415L19.278 16.3415V23.2582ZM15.9613 11.9998L20.478 9.74148L24.9948 11.9998L20.478 14.2581L15.9613 11.9998ZM26.478 20.8581L21.678 23.2581V16.3414L26.478 13.9414V20.8581Z" fill="black"/>
</svg>
