<svg width="34" height="36" viewBox="0 0 34 36" fill="none" xmlns="http://www.w3.org/2000/svg">
<path d="M29.9666 21.6486H23.9521C26.4735 17.6504 27.7504 14.0221 27.7504 10.843C27.7504 4.8642 22.8875 0 16.9102 0C10.9328 0 6.06995 4.8642 6.06995 10.843C6.06995 14.0221 7.34683 17.6506 9.86819 21.6486H3.85373L0 36H33.8203L29.9666 21.6486ZM8.17877 10.843C8.17877 6.0271 12.0957 2.10938 16.9102 2.10938C21.7246 2.10938 25.6415 6.0271 25.6415 10.843C25.6415 13.9713 24.0782 17.8638 21.1209 22.0995C19.5002 24.4226 17.8366 26.3068 16.9099 27.3024C15.9846 26.3084 14.3234 24.427 12.6994 22.0993C9.74213 17.8638 8.17877 13.9713 8.17877 10.843ZM5.47092 23.7579H11.2857C13.2174 26.4551 14.9873 28.4049 16.9102 30.3047C18.7715 28.4661 20.5117 26.5822 22.5349 23.7579H28.3497L31.0704 33.8906H2.74988L5.47092 23.7579Z" fill="black"/>
<path d="M16.9107 17.0492C20.0116 17.0492 22.5344 14.5256 22.5344 11.4242C22.5344 8.32248 20.0116 5.79919 16.9107 5.79919C13.8098 5.79919 11.2871 8.32248 11.2871 11.4242C11.2871 14.5256 13.8098 17.0492 16.9107 17.0492ZM16.9107 7.90857C18.8487 7.90857 20.4255 9.48566 20.4255 11.4242C20.4255 13.3627 18.8487 14.9398 16.9107 14.9398C14.9727 14.9398 13.3959 13.3627 13.3959 11.4242C13.3959 9.48566 14.9727 7.90857 16.9107 7.90857Z" fill="black"/>
</svg>
