<svg width="286" height="57" viewBox="0 0 286 57" fill="none" xmlns="http://www.w3.org/2000/svg">
<path d="M136.191 22.4325C136.228 24.0299 135.954 25.6191 135.385 27.1099C134.867 28.4419 134.037 29.6278 132.968 30.5672C131.876 31.5724 130.565 32.3041 129.142 32.7029C127.396 33.2404 125.579 33.4976 123.755 33.4653H121.136V43.634C121.195 43.7807 121.195 43.945 121.136 44.0917C120.997 44.2609 120.799 44.37 120.583 44.3968C120.265 44.4413 119.943 44.4413 119.626 44.3968H118.065H116.554C116.22 44.4354 115.882 44.4354 115.548 44.3968C115.35 44.3582 115.171 44.2502 115.044 44.0917C114.985 43.945 114.985 43.7807 115.044 43.634V15.2128C115.018 14.8979 115.059 14.5811 115.163 14.2831C115.267 13.9851 115.432 13.7127 115.648 13.484C115.856 13.287 116.102 13.1356 116.371 13.0393C116.639 12.9431 116.925 12.9042 117.209 12.9248H126.725L129.142 13.2808C130.124 13.5095 131.072 13.8683 131.961 14.3483C132.905 14.8167 133.744 15.4741 134.428 16.2803C135.13 17.0585 135.661 17.9766 135.989 18.9752C136.243 20.1087 136.311 21.2767 136.191 22.4325ZM129.544 22.8899C129.573 21.9437 129.384 21.0039 128.991 20.1445C128.653 19.4959 128.149 18.9513 127.531 18.5683C126.994 18.23 126.394 18.0051 125.768 17.9073C125.132 17.855 124.492 17.855 123.855 17.9073H121.136V28.6352H124.006C124.864 28.6789 125.722 28.5405 126.524 28.2287C127.183 27.9917 127.772 27.5891 128.235 27.0591C128.68 26.5445 129.007 25.9369 129.192 25.2797C129.462 24.5138 129.582 23.702 129.544 22.8899Z" fill="black"/>
<path d="M147.518 43.5325C147.577 43.6793 147.577 43.8432 147.518 43.9899C147.461 44.0743 147.386 44.1452 147.299 44.1978C147.212 44.2505 147.115 44.2836 147.015 44.295H146.058H144.497H142.936H141.98C141.879 44.2836 141.782 44.2505 141.695 44.1978C141.608 44.1452 141.533 44.0743 141.476 43.9899C141.422 43.8422 141.422 43.6802 141.476 43.5325V13.6873C141.438 13.5372 141.438 13.3799 141.476 13.2299L141.98 12.9248H142.986H146.058H147.015L147.518 13.2299C147.561 13.3792 147.561 13.5379 147.518 13.6873V43.5325Z" fill="black"/>
<path d="M180.195 42.1082C180.276 42.4251 180.276 42.7575 180.195 43.0743C180.087 43.3639 179.915 43.6248 179.691 43.8371C179.468 44.0209 179.212 44.1589 178.936 44.2436H178.03H175.311C174.828 44.3323 174.334 44.3323 173.851 44.2436C173.419 44.1444 173.02 43.9342 172.693 43.6335C172.296 43.2825 171.956 42.8708 171.686 42.4133C171.384 41.9049 170.981 41.2438 170.578 40.4303L162.825 25.6351C162.371 24.7708 161.868 23.8048 161.415 22.7879L160.156 19.8389V23.3471C160.156 24.4657 160.156 25.6859 160.156 26.9062V43.4811C160.2 43.6305 160.2 43.7891 160.156 43.9385C160.042 44.0873 159.883 44.1944 159.703 44.2436C159.419 44.2839 159.131 44.2839 158.847 44.2436H157.387H155.977C155.693 44.2839 155.405 44.2839 155.121 44.2436L154.668 43.9385C154.644 43.7869 154.644 43.6327 154.668 43.4811V15.0596C154.638 14.7401 154.681 14.418 154.795 14.1181C154.909 13.8183 155.089 13.5489 155.323 13.3311C155.785 12.937 156.38 12.7366 156.984 12.7716H160.408C160.91 12.7109 161.417 12.7109 161.918 12.7716C162.335 12.8568 162.73 13.0303 163.076 13.2802C163.427 13.5714 163.733 13.9143 163.983 14.2972C164.338 14.8073 164.642 15.3521 164.889 15.9239L170.981 27.4654L172.038 29.5501C172.391 30.2111 172.743 30.8718 173.045 31.5328C173.347 32.1937 173.7 32.9057 174.002 33.5666L174.908 35.4987C174.908 34.3801 174.908 33.1598 174.908 31.9396C174.908 30.7194 174.908 29.4991 174.908 28.3805V13.5344C174.858 13.4036 174.858 13.2583 174.908 13.1276C175.035 12.9589 175.211 12.8344 175.412 12.7716C175.696 12.7313 175.984 12.7313 176.268 12.7716H179.087C179.371 12.7251 179.66 12.7251 179.943 12.7716C180.123 12.848 180.279 12.9708 180.396 13.1276C180.425 13.2616 180.425 13.4004 180.396 13.5344L180.195 42.1082Z" fill="black"/>
<path d="M208.692 39.6679C208.72 40.0063 208.72 40.3461 208.692 40.6845C208.724 40.9207 208.724 41.1602 208.692 41.3964C208.72 41.5817 208.72 41.7703 208.692 41.9556C208.597 42.1401 208.479 42.3113 208.339 42.4642L207.282 43.1761C206.692 43.5146 206.067 43.7872 205.419 43.9894C204.604 44.3067 203.761 44.5451 202.902 44.7013C201.88 44.7831 200.853 44.7831 199.831 44.7013C197.855 44.7203 195.893 44.3756 194.04 43.6844C192.361 43.0303 190.847 42.0052 189.61 40.6845C188.324 39.2187 187.378 37.4818 186.841 35.6002C186.157 33.3619 185.834 31.0274 185.884 28.6856C185.845 26.2536 186.202 23.8317 186.941 21.5168C187.578 19.6354 188.589 17.9052 189.912 16.4325C191.193 15.0315 192.755 13.9222 194.494 13.1785C196.371 12.4368 198.369 12.0576 200.384 12.0601C201.222 11.98 202.064 11.98 202.902 12.0601C203.67 12.1873 204.428 12.3742 205.167 12.6193C205.809 12.8408 206.431 13.1126 207.03 13.4326C207.442 13.6649 207.83 13.9375 208.188 14.2463C208.36 14.4025 208.497 14.5929 208.591 14.8055C208.628 14.9901 208.628 15.1801 208.591 15.3647C208.622 15.635 208.622 15.9081 208.591 16.1784C208.62 16.5507 208.62 16.9245 208.591 17.2968C208.62 17.72 208.62 18.1446 208.591 18.5679C208.624 18.838 208.624 19.1114 208.591 19.3815L208.289 19.8389C208.16 19.89 208.016 19.89 207.886 19.8389C207.554 19.7862 207.241 19.6458 206.98 19.4321C206.531 19.0803 206.06 18.7577 205.57 18.4661C204.893 18.0851 204.186 17.7619 203.456 17.5C202.507 17.2205 201.523 17.0837 200.536 17.0935C199.383 17.0695 198.242 17.3311 197.212 17.856C196.209 18.3669 195.345 19.1173 194.695 20.0422C193.964 21.0854 193.435 22.2586 193.134 23.4998C192.758 24.9952 192.572 26.5327 192.58 28.0755C192.55 29.7065 192.754 31.3334 193.185 32.9057C193.473 34.1293 194.023 35.2744 194.796 36.2612C195.472 37.1301 196.356 37.8123 197.364 38.2441C198.416 38.6871 199.546 38.9119 200.686 38.9051C201.675 38.9203 202.659 38.7831 203.607 38.4983C204.342 38.2714 205.051 37.9646 205.721 37.5832C206.229 37.3324 206.717 37.0435 207.181 36.7189C207.447 36.5127 207.758 36.3732 208.088 36.3121H208.44C208.507 36.3592 208.564 36.4197 208.607 36.4896C208.65 36.5595 208.679 36.6375 208.692 36.7189C208.73 36.9887 208.73 37.2624 208.692 37.5323C208.76 38.2424 208.76 38.9578 208.692 39.6679Z" fill="black"/>
<path d="M231.853 42.1081C231.853 42.6165 231.853 42.9724 231.853 43.3283C231.888 43.5812 231.888 43.8381 231.853 44.091C231.777 44.2438 231.675 44.3814 231.551 44.4976C231.421 44.5486 231.277 44.5486 231.148 44.4976H215.389C215.148 44.5078 214.907 44.468 214.682 44.3806C214.457 44.2931 214.252 44.16 214.08 43.9892C213.884 43.7909 213.732 43.5516 213.637 43.2882C213.541 43.0248 213.503 42.7436 213.526 42.464V14.8562C213.503 14.5766 213.541 14.2954 213.637 14.032C213.732 13.7686 213.884 13.5294 214.08 13.331C214.447 13.0229 214.912 12.8601 215.389 12.8732H231.048C231.177 12.8222 231.321 12.8222 231.45 12.8732C231.574 12.9894 231.676 13.1273 231.752 13.2801C231.752 13.2801 231.752 13.7884 231.752 14.0934C231.782 14.4996 231.782 14.9074 231.752 15.3136C231.781 15.6859 231.781 16.0601 231.752 16.4323C231.766 16.7033 231.766 16.9747 231.752 17.2457L231.45 17.6525C231.321 17.7036 231.177 17.7036 231.048 17.6525H219.87V25.3808H229.336C229.465 25.3297 229.609 25.3297 229.738 25.3808L230.04 25.7873C230.076 26.0403 230.076 26.2971 230.04 26.5501C230.04 26.906 230.04 27.2618 230.04 27.7194C230.04 28.177 230.04 28.5839 230.04 28.889C230.076 29.142 230.076 29.3985 230.04 29.6514C229.965 29.8042 229.862 29.9421 229.738 30.0583H229.336H219.87V39.0067H231.148H231.551L231.853 39.4641C231.888 39.7171 231.888 39.9739 231.853 40.2269C231.803 41.0404 231.853 41.4471 231.853 42.1081Z" fill="black"/>
<path d="M258.89 22.4325C258.927 24.0299 258.654 25.6191 258.084 27.1099C257.566 28.4419 256.737 29.6278 255.667 30.5672C254.575 31.5724 253.265 32.3041 251.841 32.7029C250.096 33.2404 248.278 33.4976 246.454 33.4653H243.836V43.634C243.894 43.7807 243.894 43.945 243.836 44.0917C243.696 44.2609 243.498 44.37 243.282 44.3968C242.964 44.4413 242.643 44.4413 242.325 44.3968H240.764H239.254C238.919 44.4354 238.582 44.4354 238.247 44.3968C238.049 44.3582 237.87 44.2502 237.743 44.0917C237.685 43.945 237.685 43.7807 237.743 43.634V15.2128C237.717 14.8979 237.758 14.5811 237.862 14.2831C237.966 13.9851 238.132 13.7127 238.347 13.484C238.555 13.287 238.801 13.1356 239.07 13.0393C239.339 12.9431 239.624 12.9042 239.908 12.9248H249.424L251.841 13.2808C252.823 13.5095 253.772 13.8683 254.661 14.3483C255.604 14.8167 256.444 15.4741 257.128 16.2803C257.81 17.072 258.34 17.9862 258.688 18.9752C258.942 20.1087 259.01 21.2767 258.89 22.4325ZM252.244 22.8899C252.273 21.9437 252.083 21.0039 251.69 20.1445C251.353 19.4959 250.848 18.9513 250.23 18.5683C249.693 18.23 249.093 18.0051 248.468 17.9073C247.831 17.855 247.191 17.855 246.554 17.9073H243.836V28.6352H246.705C247.564 28.6789 248.421 28.5405 249.223 28.2287C249.882 27.9917 250.471 27.5891 250.935 27.0591C251.38 26.5445 251.706 25.9369 251.891 25.2797C252.161 24.5138 252.281 23.702 252.244 22.8899Z" fill="black"/>
<path d="M284.719 15.4153C284.753 15.8213 284.753 16.2294 284.719 16.6355C284.733 16.9065 284.733 17.1782 284.719 17.4491L284.417 17.9066C284.286 17.9493 284.145 17.9493 284.015 17.9066H276.16V43.3282C276.219 43.4749 276.219 43.6391 276.16 43.7859C276.033 43.9443 275.855 44.0524 275.657 44.0909C275.322 44.1296 274.984 44.1296 274.65 44.0909H273.089H271.579C271.244 44.1296 270.906 44.1296 270.572 44.0909C270.373 44.0524 270.195 43.9443 270.068 43.7859C270.009 43.6391 270.009 43.4749 270.068 43.3282V17.9066H262.214C262.084 17.9576 261.94 17.9576 261.811 17.9066C261.687 17.7708 261.585 17.6166 261.509 17.4491C261.471 17.1793 261.471 16.9053 261.509 16.6355C261.475 16.2294 261.475 15.8213 261.509 15.4153C261.48 15.0091 261.48 14.6013 261.509 14.1951C261.471 13.9253 261.471 13.6513 261.509 13.3814C261.585 13.214 261.687 13.0598 261.811 12.924C261.94 12.873 262.084 12.873 262.214 12.924H284.317C284.447 12.8775 284.589 12.8775 284.719 12.924L285.022 13.3814C285.035 13.6524 285.035 13.9241 285.022 14.1951C284.951 14.6089 284.85 15.0167 284.719 15.4153Z" fill="black"/>
<path fill-rule="evenodd" clip-rule="evenodd" d="M36.5837 2.53728C36.5837 1.55963 37.3763 0.76709 38.3539 0.76709H57.2359C58.2136 0.76709 59.0061 1.55963 59.0061 2.53728V30.2702H57.826V2.53728C57.826 2.21139 57.5618 1.94721 57.2359 1.94721H38.3539C38.028 1.94721 37.7639 2.21139 37.7639 2.53728V45.6118H36.5837V2.53728Z" fill="black"/>
<path fill-rule="evenodd" clip-rule="evenodd" d="M66.677 33.8433V14.9285H67.8572V34.3744L73.8941 37.091C74.5294 37.3769 74.9379 38.0087 74.9379 38.7053V54.464C74.9379 54.7899 75.2021 55.054 75.528 55.054H95V56.2342H75.528C74.5503 56.2342 73.7578 55.4416 73.7578 54.464V38.7053C73.7578 38.4731 73.6216 38.2625 73.4099 38.1672L67.8572 35.6685V54.464C67.8572 55.4416 67.0646 56.2342 66.087 56.2342H63.7267C62.7491 56.2342 61.9565 55.4416 61.9565 54.464V34.4568C61.9565 33.1723 63.2817 32.3154 64.4532 32.8426L66.677 33.8433ZM66.677 35.1374L63.9689 33.9187C63.5784 33.743 63.1367 34.0287 63.1367 34.4568V54.464C63.1367 54.7899 63.4008 55.054 63.7267 55.054H66.087C66.4129 55.054 66.677 54.7899 66.677 54.464V35.1374Z" fill="black"/>
<path fill-rule="evenodd" clip-rule="evenodd" d="M54.2858 13.7485C53.9599 13.7485 53.6957 14.0127 53.6957 14.3385V29.0901C53.6957 29.416 53.9599 29.6802 54.2858 29.6802H67.2672V30.8603H54.2858C53.3082 30.8603 52.5156 30.0677 52.5156 29.0901V14.3385C52.5156 13.3609 53.3082 12.5684 54.2858 12.5684H65.497C65.8864 12.5684 66.4575 12.6803 66.9481 13.0336C67.4689 13.4085 67.8572 14.0282 67.8572 14.9286H66.6771C66.6771 14.4128 66.4754 14.1474 66.2586 13.9913C66.0116 13.8135 65.6976 13.7485 65.497 13.7485H54.2858Z" fill="#FF1817"/>
<path fill-rule="evenodd" clip-rule="evenodd" d="M29.5032 37.351C29.5032 36.3734 30.2957 35.5808 31.2734 35.5808H46.0249C47.0026 35.5808 47.7951 36.3734 47.7951 37.351V46.2019C47.7951 47.1796 47.0026 47.9721 46.0249 47.9721H38.9442C38.2632 47.9721 37.644 47.8015 37.1993 47.3567C36.7546 46.912 36.5839 46.2929 36.5839 45.6119H37.764C37.764 46.111 37.8884 46.3769 38.0338 46.5223C38.1791 46.6676 38.4451 46.792 38.9442 46.792H46.0249C46.3508 46.792 46.615 46.5278 46.615 46.2019V37.351C46.615 37.0251 46.3508 36.7609 46.0249 36.7609H31.2734C30.9475 36.7609 30.6833 37.0251 30.6833 37.351V53.8727C30.6833 54.1103 30.7339 54.4585 30.8612 54.7238C30.982 54.9753 31.1113 55.0529 31.2734 55.0529V56.233C30.4914 56.233 30.0306 55.7205 29.7973 55.2344C29.5706 54.7621 29.5032 54.2253 29.5032 53.8727V37.351Z" fill="#FF1817"/>
<path fill-rule="evenodd" clip-rule="evenodd" d="M33.6335 19.5914C33.6335 19.1781 33.2196 18.8929 32.8334 19.04L22.8024 22.8614C22.5736 22.9485 22.4224 23.1679 22.4224 23.4128V54.4628C22.4224 55.4405 21.6298 56.233 20.6522 56.233H0V55.0529H20.6522C20.9781 55.0529 21.2422 54.7887 21.2422 54.4628V23.4128C21.2422 22.6782 21.6958 22.02 22.3822 21.7585L32.4133 17.9372C33.5719 17.4958 34.8137 18.3515 34.8137 19.5914V54.4628C34.8137 55.4405 34.0211 56.233 33.0435 56.233H31.2733V55.0529H33.0435C33.3694 55.0529 33.6335 54.7887 33.6335 54.4628V19.5914Z" fill="black"/>
</svg>
