<svg width="26" height="26" viewBox="0 0 26 26" fill="none" xmlns="http://www.w3.org/2000/svg">
<path d="M5.76301 17.2274C5.74392 17.2274 5.72442 17.2262 5.70451 17.2234C4.77898 17.0903 3.88366 16.7972 3.05861 16.3572C2.9659 16.3052 2.89727 16.2189 2.86743 16.1168C2.83758 16.0148 2.84889 15.9051 2.89893 15.8113C2.94897 15.7175 3.03376 15.647 3.13514 15.6149C3.23652 15.5829 3.34642 15.5918 3.4413 15.6398C4.18293 16.0359 4.98801 16.2994 5.8203 16.4186C5.92157 16.4337 6.01342 16.4865 6.07748 16.5664C6.14154 16.6462 6.17311 16.7474 6.16588 16.8495C6.15864 16.9516 6.11314 17.0473 6.03846 17.1174C5.96378 17.1874 5.86541 17.2267 5.76301 17.2274ZM20.2369 17.2274C20.1341 17.2274 20.0352 17.1885 19.96 17.1184C19.8848 17.0483 19.8389 16.9524 19.8317 16.8499C19.8244 16.7474 19.8563 16.6459 19.9208 16.566C19.9854 16.486 20.0779 16.4335 20.1796 16.419C21.0119 16.2999 21.817 16.0363 22.5586 15.6402C22.6531 15.5957 22.7611 15.5892 22.8603 15.6221C22.9594 15.6549 23.0421 15.7247 23.0913 15.8169C23.1404 15.909 23.1523 16.0166 23.1244 16.1172C23.0965 16.2179 23.0309 16.304 22.9413 16.3576C22.1162 16.7976 21.2209 17.0907 20.2954 17.2238C20.276 17.2262 20.2564 17.2274 20.2369 17.2274ZM15.9875 13.5805C15.9143 13.5807 15.8423 13.5611 15.7793 13.5237C15.7163 13.4863 15.6647 13.4325 15.6298 13.3681C15.5949 13.3037 15.5781 13.231 15.5813 13.1578C15.5844 13.0847 15.6073 13.0137 15.6475 12.9525C15.929 12.5189 16.3146 12.1627 16.7691 11.9164C17.2236 11.6701 17.7326 11.5415 18.2495 11.5424C18.3573 11.5424 18.4606 11.5852 18.5368 11.6614C18.613 11.7375 18.6558 11.8409 18.6558 11.9486C18.6558 12.0564 18.613 12.1597 18.5368 12.2359C18.4606 12.3121 18.3573 12.3549 18.2495 12.3549C17.8678 12.3541 17.492 12.449 17.1564 12.6309C16.8208 12.8128 16.5361 13.0759 16.3284 13.3961C16.2915 13.4529 16.241 13.4995 16.1814 13.5317C16.1219 13.5639 16.0552 13.5807 15.9875 13.5805Z" fill="black"/>
<path d="M19.1501 12.3548C17.71 12.3548 16.4937 11.1385 16.4937 9.69879C16.4937 8.25904 17.71 7.04272 19.1501 7.04272C20.5899 7.04272 21.8062 8.25904 21.8062 9.69879C21.8062 11.1385 20.5899 12.3548 19.1501 12.3548ZM19.1501 7.85522C18.1507 7.85522 17.3062 8.69941 17.3062 9.69879C17.3062 10.6982 18.1507 11.5423 19.1501 11.5423C20.1495 11.5423 20.9937 10.6982 20.9937 9.69879C20.9937 8.69941 20.1495 7.85522 19.1501 7.85522Z" fill="black"/>
<path d="M22.75 15.0552C22.6422 15.0552 22.5389 15.0124 22.4627 14.9362C22.3865 14.86 22.3437 14.7567 22.3437 14.6489C22.343 14.0408 22.1011 13.4578 21.6711 13.0279C21.2411 12.5979 20.6581 12.356 20.05 12.3552C19.9423 12.3552 19.839 12.3124 19.7628 12.2362C19.6866 12.1601 19.6438 12.0567 19.6438 11.949C19.6438 11.8412 19.6866 11.7379 19.7628 11.6617C19.839 11.5855 19.9423 11.5427 20.05 11.5427C21.7628 11.5427 23.1562 12.9366 23.1562 14.6489C23.1562 14.7567 23.1134 14.86 23.0372 14.9362C22.9611 15.0124 22.8577 15.0552 22.75 15.0552Z" fill="black"/>
<path d="M20.0501 12.3549H18.25C18.1423 12.3549 18.0389 12.3121 17.9627 12.2359C17.8866 12.1597 17.8438 12.0564 17.8438 11.9486C17.8438 11.8409 17.8866 11.7375 17.9627 11.6613C18.0389 11.5852 18.1423 11.5424 18.25 11.5424H20.0501C20.1578 11.5424 20.2612 11.5852 20.3374 11.6613C20.4136 11.7375 20.4564 11.8409 20.4564 11.9486C20.4564 12.0564 20.4136 12.1597 20.3374 12.2359C20.2612 12.3121 20.1578 12.3549 20.0501 12.3549ZM22.75 16.4052C22.6423 16.4052 22.539 16.3624 22.4628 16.2862C22.3866 16.21 22.3438 16.1067 22.3438 15.9989V14.649C22.3438 14.5412 22.3866 14.4379 22.4628 14.3617C22.539 14.2855 22.6423 14.2427 22.75 14.2427C22.8578 14.2427 22.9611 14.2855 23.0373 14.3617C23.1135 14.4379 23.1563 14.5412 23.1563 14.649V15.9989C23.1563 16.1067 23.1135 16.21 23.0373 16.2862C22.9611 16.3624 22.8578 16.4052 22.75 16.4052ZM8.2002 16.705C8.09245 16.705 7.98912 16.6622 7.91293 16.586C7.83675 16.5098 7.79395 16.4065 7.79395 16.2987C7.79395 14.0895 9.5912 12.2927 11.8 12.2927C11.9077 12.2927 12.0111 12.3355 12.0872 12.4117C12.1634 12.4879 12.2062 12.5912 12.2062 12.699C12.2062 12.8067 12.1634 12.91 12.0872 12.9862C12.0111 13.0624 11.9077 13.1052 11.8 13.1052C10.0389 13.1052 8.60645 14.5376 8.60645 16.2987C8.60645 16.4065 8.56364 16.5098 8.48746 16.586C8.41127 16.6622 8.30794 16.705 8.2002 16.705Z" fill="black"/>
<path d="M14.2001 13.1052H11.8C11.6922 13.1052 11.5889 13.0624 11.5127 12.9862C11.4365 12.91 11.3937 12.8067 11.3937 12.699C11.3937 12.5912 11.4365 12.4879 11.5127 12.4117C11.5889 12.3355 11.6922 12.2927 11.8 12.2927H14.2001C14.3079 12.2927 14.4112 12.3355 14.4874 12.4117C14.5636 12.4879 14.6064 12.5912 14.6064 12.699C14.6064 12.8067 14.5636 12.91 14.4874 12.9862C14.4112 13.0624 14.3079 13.1052 14.2001 13.1052ZM10.0125 13.5805C9.94481 13.5806 9.87818 13.5638 9.81866 13.5316C9.75913 13.4994 9.7086 13.4528 9.67164 13.3961C9.46381 13.0759 9.17911 12.8129 8.84353 12.6311C8.50796 12.4492 8.13218 12.3542 7.75049 12.3549C7.64274 12.3549 7.53941 12.3121 7.46323 12.2359C7.38704 12.1597 7.34424 12.0564 7.34424 11.9486C7.34424 11.8409 7.38704 11.7375 7.46323 11.6614C7.53941 11.5852 7.64274 11.5424 7.75049 11.5424C8.26745 11.5414 8.77642 11.67 9.23093 11.9163C9.68545 12.1626 10.071 12.5188 10.3525 12.9525C10.3925 13.0137 10.4151 13.0847 10.4181 13.1577C10.4211 13.2308 10.4042 13.3034 10.3694 13.3677C10.3346 13.432 10.2831 13.4857 10.2202 13.5232C10.1574 13.5607 10.0856 13.5805 10.0125 13.5805ZM8.20021 18.5051C8.09246 18.5051 7.98913 18.4623 7.91295 18.3861C7.83676 18.3099 7.79396 18.2066 7.79396 18.0988V16.2987C7.79396 16.191 7.83676 16.0877 7.91295 16.0115C7.98913 15.9353 8.09246 15.8925 8.20021 15.8925C8.30795 15.8925 8.41128 15.9353 8.48747 16.0115C8.56366 16.0877 8.60646 16.191 8.60646 16.2987V18.0988C8.60646 18.2066 8.56366 18.3099 8.48747 18.3861C8.41128 18.4623 8.30795 18.5051 8.20021 18.5051Z" fill="black"/>
<path d="M12.9999 13.1052C11.1535 13.1052 9.59351 11.5452 9.59351 9.69877C9.59351 7.85236 11.1535 6.29236 12.9999 6.29236C14.8463 6.29236 16.4063 7.85236 16.4063 9.69877C16.4063 11.5452 14.8463 13.1052 12.9999 13.1052ZM12.9999 7.10486C11.5939 7.10486 10.406 8.29273 10.406 9.69877C10.406 11.1048 11.5939 12.2927 12.9999 12.2927C14.4059 12.2927 15.5938 11.1048 15.5938 9.69877C15.5938 8.29273 14.4059 7.10486 12.9999 7.10486Z" fill="black"/>
<path d="M17.7997 16.705C17.692 16.705 17.5887 16.6622 17.5125 16.586C17.4363 16.5098 17.3935 16.4065 17.3935 16.2988C17.3935 14.5377 15.961 13.1052 14.2 13.1052C14.0922 13.1052 13.9889 13.0624 13.9127 12.9862C13.8365 12.91 13.7937 12.8067 13.7937 12.699C13.7937 12.5912 13.8365 12.4879 13.9127 12.4117C13.9889 12.3355 14.0922 12.2927 14.2 12.2927C16.4091 12.2927 18.206 14.09 18.206 16.2988C18.206 16.4065 18.1632 16.5098 18.087 16.586C18.0108 16.6622 17.9075 16.705 17.7997 16.705Z" fill="black"/>
<path d="M17.7998 18.505C17.6921 18.505 17.5887 18.4622 17.5125 18.3861C17.4364 18.3099 17.3936 18.2065 17.3936 18.0988V16.2987C17.3936 16.191 17.4364 16.0876 17.5125 16.0114C17.5887 15.9353 17.6921 15.8925 17.7998 15.8925C17.9075 15.8925 18.0109 15.9353 18.0871 16.0114C18.1633 16.0876 18.2061 16.191 18.2061 16.2987V18.0988C18.2061 18.2065 18.1633 18.3099 18.0871 18.3861C18.0109 18.4622 17.9075 18.505 17.7998 18.505Z" fill="black"/>
<path d="M12.9999 19.7076C11.2855 19.7076 9.57154 19.2908 8.0087 18.4575C7.91908 18.4039 7.85353 18.3178 7.82562 18.2171C7.7977 18.1165 7.80954 18.0089 7.85871 17.9167C7.90787 17.8246 7.99059 17.7548 8.08974 17.722C8.18889 17.6891 8.29689 17.6956 8.39139 17.7401C9.80932 18.498 11.3923 18.8946 13.0001 18.8946C14.6079 18.8946 16.1909 18.498 17.6088 17.7401C17.7033 17.6956 17.8113 17.6891 17.9104 17.722C18.0096 17.7548 18.0923 17.8246 18.1415 17.9167C18.1906 18.0089 18.2025 18.1165 18.1746 18.2171C18.1466 18.3178 18.0811 18.4039 17.9915 18.4575C16.4554 19.2776 14.7411 19.7069 12.9999 19.7076ZM6.84967 12.3548C5.40992 12.3548 4.1936 11.1385 4.1936 9.69879C4.1936 8.25904 5.40992 7.04272 6.84967 7.04272C8.28942 7.04272 9.50573 8.25904 9.50573 9.69879C9.50573 11.1385 8.28942 12.3548 6.84967 12.3548ZM6.84967 7.85522C5.85029 7.85522 5.0061 8.69941 5.0061 9.69879C5.0061 10.6982 5.85029 11.5423 6.84967 11.5423C7.84904 11.5423 8.69323 10.6982 8.69323 9.69879C8.69323 8.69941 7.84904 7.85522 6.84967 7.85522Z" fill="black"/>
<path d="M3.25 15.0552C3.14226 15.0552 3.03892 15.0124 2.96274 14.9362C2.88655 14.86 2.84375 14.7567 2.84375 14.6489C2.84375 12.9362 4.23759 11.5427 5.94994 11.5427C6.05768 11.5427 6.16101 11.5855 6.2372 11.6617C6.31339 11.7379 6.35619 11.8412 6.35619 11.949C6.35619 12.0567 6.31339 12.1601 6.2372 12.2362C6.16101 12.3124 6.05768 12.3552 5.94994 12.3552C5.34178 12.3558 4.75868 12.5976 4.32865 13.0276C3.89862 13.4577 3.65679 14.0408 3.65625 14.6489C3.65625 14.7567 3.61345 14.86 3.53726 14.9362C3.46108 15.0124 3.35774 15.0552 3.25 15.0552Z" fill="black"/>
<path d="M7.75003 12.3549H5.94994C5.84219 12.3549 5.73886 12.3121 5.66268 12.2359C5.58649 12.1597 5.54369 12.0564 5.54369 11.9486C5.54369 11.8409 5.58649 11.7375 5.66268 11.6613C5.73886 11.5852 5.84219 11.5424 5.94994 11.5424H7.75003C7.85778 11.5424 7.96111 11.5852 8.03729 11.6613C8.11348 11.7375 8.15628 11.8409 8.15628 11.9486C8.15628 12.0564 8.11348 12.1597 8.03729 12.2359C7.96111 12.3121 7.85778 12.3549 7.75003 12.3549ZM3.25 16.4052C3.14226 16.4052 3.03892 16.3624 2.96274 16.2862C2.88655 16.21 2.84375 16.1067 2.84375 15.9989V14.649C2.84375 14.5412 2.88655 14.4379 2.96274 14.3617C3.03892 14.2855 3.14226 14.2427 3.25 14.2427C3.35774 14.2427 3.46108 14.2855 3.53726 14.3617C3.61345 14.4379 3.65625 14.5412 3.65625 14.649V15.9989C3.65625 16.1067 3.61345 16.21 3.53726 16.2862C3.46108 16.3624 3.35774 16.4052 3.25 16.4052Z" fill="black"/>
</svg>
