<svg width="24" height="24" viewBox="0 0 24 24" fill="none" xmlns="http://www.w3.org/2000/svg">
<path d="M20.25 22.3125H8.25005C7.70304 22.3125 7.17843 22.0952 6.79164 21.7084C6.40485 21.3216 6.18755 20.797 6.18755 20.25V19.9125C4.90793 19.616 3.76646 18.8949 2.94919 17.8666C2.13191 16.8383 1.68701 15.5635 1.68701 14.25C1.68701 12.9365 2.13191 11.6617 2.94919 10.6334C3.76646 9.60513 4.90793 8.88398 6.18755 8.5875V3.75C6.18755 3.20299 6.40485 2.67839 6.79164 2.2916C7.17843 1.9048 7.70304 1.6875 8.25005 1.6875H16.6275C16.8994 1.687 17.1686 1.74043 17.4197 1.84471C17.6707 1.94899 17.8986 2.10204 18.09 2.295L21.705 5.91C21.9026 6.10589 22.0582 6.33985 22.1627 6.59768C22.2671 6.85552 22.3181 7.13188 22.3125 7.41V20.25C22.3125 20.797 22.0952 21.3216 21.7085 21.7084C21.3217 22.0952 20.7971 22.3125 20.25 22.3125ZM7.31255 20.0625V20.25C7.31255 20.4986 7.41132 20.7371 7.58713 20.9129C7.76295 21.0887 8.00141 21.1875 8.25005 21.1875H20.25C20.4987 21.1875 20.7371 21.0887 20.913 20.9129C21.0888 20.7371 21.1875 20.4986 21.1875 20.25V8.0625H18C17.453 8.0625 16.9284 7.84521 16.5416 7.45841C16.1548 7.07162 15.9375 6.54701 15.9375 6V2.8125H8.25005C8.00141 2.8125 7.76295 2.91128 7.58713 3.08709C7.41132 3.26291 7.31255 3.50136 7.31255 3.75V8.4375H7.50005C9.04162 8.4375 10.5201 9.04989 11.6101 10.1399C12.7002 11.23 13.3125 12.7084 13.3125 14.25C13.3125 15.7916 12.7002 17.27 11.6101 18.3601C10.5201 19.4501 9.04162 20.0625 7.50005 20.0625H7.31255ZM7.50005 9.5625C6.57295 9.5625 5.66667 9.83742 4.89581 10.3525C4.12496 10.8676 3.52415 11.5996 3.16936 12.4562C2.81458 13.3127 2.72175 14.2552 2.90262 15.1645C3.08348 16.0738 3.52993 16.909 4.18548 17.5646C4.84104 18.2201 5.67628 18.6666 6.58556 18.8474C7.49485 19.0283 8.43735 18.9355 9.29388 18.5807C10.1504 18.2259 10.8825 17.6251 11.3976 16.8542C11.9126 16.0834 12.1875 15.1771 12.1875 14.25C12.1875 13.0068 11.6937 11.8145 10.8146 10.9354C9.93553 10.0564 8.74325 9.5625 7.50005 9.5625ZM17.0625 2.9175V6C17.0625 6.24864 17.1613 6.4871 17.3371 6.66292C17.5129 6.83873 17.7514 6.9375 18 6.9375H21.0825C21.0361 6.85236 20.9781 6.7741 20.91 6.705L17.295 3.09C17.2259 3.02197 17.1477 2.96391 17.0625 2.9175ZM18.75 17.0625H15C14.8509 17.0625 14.7078 17.0032 14.6023 16.8978C14.4968 16.7923 14.4375 16.6492 14.4375 16.5C14.4375 16.3508 14.4968 16.2077 14.6023 16.1023C14.7078 15.9968 14.8509 15.9375 15 15.9375H18.75C18.8992 15.9375 19.0423 15.9968 19.1478 16.1023C19.2533 16.2077 19.3125 16.3508 19.3125 16.5C19.3125 16.6492 19.2533 16.7923 19.1478 16.8978C19.0423 17.0032 18.8992 17.0625 18.75 17.0625ZM6.37505 15.9375C6.23034 15.9264 6.09572 15.8591 6.00005 15.75C5.90781 15.6469 5.85681 15.5134 5.85681 15.375C5.85681 15.2366 5.90781 15.1031 6.00005 15L6.96005 14.04V12C6.96005 11.8508 7.01931 11.7077 7.1248 11.6023C7.23029 11.4968 7.37336 11.4375 7.52255 11.4375C7.67173 11.4375 7.81481 11.4968 7.9203 11.6023C8.02578 11.7077 8.08505 11.8508 8.08505 12V14.25C8.08492 14.3991 8.02557 14.5421 7.92005 14.6475L6.75005 15.75C6.65437 15.8591 6.51975 15.9264 6.37505 15.9375ZM18.75 14.0625H15.75C15.6009 14.0625 15.4578 14.0032 15.3523 13.8978C15.2468 13.7923 15.1875 13.6492 15.1875 13.5C15.1875 13.3508 15.2468 13.2077 15.3523 13.1023C15.4578 12.9968 15.6009 12.9375 15.75 12.9375H18.75C18.8992 12.9375 19.0423 12.9968 19.1478 13.1023C19.2533 13.2077 19.3125 13.3508 19.3125 13.5C19.3125 13.6492 19.2533 13.7923 19.1478 13.8978C19.0423 14.0032 18.8992 14.0625 18.75 14.0625ZM18.75 11.0625H15C14.8509 11.0625 14.7078 11.0032 14.6023 10.8978C14.4968 10.7923 14.4375 10.6492 14.4375 10.5C14.4375 10.3508 14.4968 10.2077 14.6023 10.1023C14.7078 9.99677 14.8509 9.9375 15 9.9375H18.75C18.8992 9.9375 19.0423 9.99677 19.1478 10.1023C19.2533 10.2077 19.3125 10.3508 19.3125 10.5C19.3125 10.6492 19.2533 10.7923 19.1478 10.8978C19.0423 11.0032 18.8992 11.0625 18.75 11.0625ZM13.5 8.0625H11.25C11.1009 8.0625 10.9578 8.00324 10.8523 7.89775C10.7468 7.79226 10.6875 7.64919 10.6875 7.5C10.6875 7.35082 10.7468 7.20775 10.8523 7.10226C10.9578 6.99677 11.1009 6.9375 11.25 6.9375H13.5C13.6492 6.9375 13.7923 6.99677 13.8978 7.10226C14.0033 7.20775 14.0625 7.35082 14.0625 7.5C14.0625 7.64919 14.0033 7.79226 13.8978 7.89775C13.7923 8.00324 13.6492 8.0625 13.5 8.0625Z" fill="black"/>
</svg>
