<svg width="24" height="24" viewBox="0 0 24 24" fill="none" xmlns="http://www.w3.org/2000/svg">
<path d="M12 1.49585C1.96427 1.54872 -2.31373 14.2957 5.66252 20.3756C7.48892 21.7514 9.71342 22.4955 12 22.4955C14.2866 22.4955 16.5111 21.7514 18.3375 20.3756C26.3138 14.298 22.035 1.54685 12 1.49585ZM18.7414 19.044C17.0704 20.6525 14.8794 21.6105 12.5639 21.745C10.2484 21.8796 7.96114 21.1817 6.11515 19.7775C5.81587 19.5495 5.5299 19.3046 5.25865 19.044V17.5747C5.25792 17.0002 5.43827 16.4402 5.77406 15.974C6.10985 15.5079 6.58401 15.1595 7.12915 14.9782L10.5026 13.8525C11.4751 13.5298 12.5258 13.5299 13.4981 13.8529L16.8709 14.9782C17.416 15.1595 17.8902 15.5079 18.226 15.974C18.5618 16.4402 18.7421 17.0002 18.7414 17.5747V19.044ZM8.66815 9.52798C8.8429 5.11048 15.1579 5.11197 15.3319 9.52798C15.3319 10.4116 14.9809 11.2591 14.356 11.884C13.7312 12.5088 12.8837 12.8598 12 12.8598C11.1164 12.8598 10.2689 12.5088 9.64403 11.884C9.01918 11.2591 8.66815 10.4116 8.66815 9.52798ZM19.4914 18.2426V17.5747C19.4922 16.8428 19.2624 16.1292 18.8346 15.5354C18.4068 14.9415 17.8028 14.4975 17.1083 14.2665L13.8289 13.1722C17.622 11.2316 16.3185 5.50272 12 5.44535C7.68115 5.50422 6.37765 11.2301 10.1711 13.1722L6.89177 14.2665C6.1972 14.4974 5.59306 14.9414 5.16519 15.5353C4.73731 16.1291 4.50745 16.8428 4.50827 17.5747V18.2422C-0.778478 11.9899 3.79502 2.21022 12 2.24622C20.205 2.21022 24.7789 11.9899 19.4914 18.2426Z" fill="black"/>
</svg>
