<svg width="36" height="36" viewBox="0 0 36 36" fill="none" xmlns="http://www.w3.org/2000/svg">
<rect x="0.5" y="0.5" width="35" height="35" rx="17.5" fill="#EFEFEF" stroke="#161828"/>
<path d="M10.3704 9.5H15.5383C16.0177 9.5 16.4086 9.89077 16.4087 10.3704C16.4087 10.3704 16.4087 10.3705 16.4087 10.3705V15.5383C16.4087 16.0178 16.0178 16.4087 15.5383 16.4087H10.3704C9.89087 16.4087 9.5 16.0178 9.5 15.5383V10.3704C9.5 9.89087 9.89087 9.5 10.3704 9.5Z" stroke="black"/>
<path d="M20.4622 9.5H25.6301C26.1096 9.5 26.5005 9.89087 26.5005 10.3704V15.5383C26.5005 16.0178 26.1096 16.4087 25.6301 16.4087H20.4622C19.9827 16.4087 19.5918 16.0178 19.5918 15.5383V10.3704C19.5918 9.89087 19.9827 9.5 20.4622 9.5Z" stroke="black"/>
<path d="M10.3704 19.5913H15.5383C16.0178 19.5913 16.4086 19.982 16.4087 20.4617C16.4087 20.4617 16.4087 20.4617 16.4087 20.4617V25.6295C16.4087 26.1091 16.0178 26.4999 15.5383 26.4999H10.3704C9.89087 26.4999 9.5 26.1091 9.5 25.6295V20.4617C9.5 19.9821 9.89084 19.5913 10.3704 19.5913Z" stroke="black"/>
<path d="M20.4622 19.5913H25.6301C26.1097 19.5913 26.5005 19.9821 26.5005 20.4617V25.6295C26.5005 26.1091 26.1097 26.4999 25.6301 26.5C25.6301 26.5 25.6301 26.5 25.63 26.5H20.4622C19.9827 26.5 19.5918 26.1091 19.5918 25.6296V20.4617C19.5918 19.9822 19.9827 19.5913 20.4622 19.5913Z" stroke="black"/>
</svg>
