<svg width="62" height="26" viewBox="0 0 62 26" fill="none" xmlns="http://www.w3.org/2000/svg">
<g clip-path="url(#clip0_1005_11059)">
<path d="M4.3572 10.1431C4.3572 9.46937 4.90829 9.21012 5.82122 9.21012C7.13 9.21012 8.78329 9.60762 10.0922 10.316V6.25557C8.66281 5.68544 7.25061 5.46081 5.82122 5.46081C2.325 5.46081 0 7.29234 0 10.3506C0 15.1192 6.54439 14.3591 6.54439 16.4152C6.54439 17.2099 5.85561 17.4691 4.8911 17.4691C3.46171 17.4691 1.6361 16.8816 0.189391 16.0868V20.199C1.7911 20.8902 3.41 21.1838 4.8911 21.1838C8.47329 21.1838 10.9361 19.4043 10.9361 16.3115C10.9189 11.1626 4.3572 12.0783 4.3572 10.1431ZM15.9994 2.00526L11.7972 2.90365L11.78 16.7434C11.78 19.3006 13.6917 21.1838 16.2406 21.1838C17.6528 21.1838 18.6861 20.9247 19.2544 20.6137V17.1062C18.7034 17.3309 15.9822 18.1256 15.9822 15.5685V9.43475H19.2544V5.75456H15.9822L15.9994 2.00526ZM24.6106 7.03309L24.335 5.75456H20.615V20.8728H24.9206V10.627C25.9366 9.29662 27.6589 9.5385 28.1928 9.7285V5.75456C27.6417 5.54719 25.6267 5.16706 24.6106 7.03309ZM29.2433 5.75456H33.5661V20.8728H29.2433V5.75456ZM29.2433 4.44142L33.5661 3.50841V0.000976562L29.2433 0.91674V4.44142ZM42.5561 5.46081C40.8683 5.46081 39.7833 6.25557 39.1806 6.80858L38.9566 5.73731H35.1678V25.8834L39.4733 24.9677L39.4906 20.078C40.1106 20.5273 41.0233 21.1666 42.5389 21.1666C45.6217 21.1666 48.4289 18.6785 48.4289 13.2014C48.4117 8.19073 45.57 5.46081 42.5561 5.46081ZM41.5228 17.3654C40.5067 17.3654 39.9038 17.0026 39.4906 16.5534L39.4733 10.1431C39.9211 9.64212 40.5411 9.29662 41.5228 9.29662C43.09 9.29662 44.175 11.0589 44.175 13.3223C44.175 15.6376 43.1072 17.3654 41.5228 17.3654ZM62 13.3742C62 8.95099 59.8644 5.46081 55.7828 5.46081C51.6838 5.46081 49.2038 8.95111 49.2038 13.3397C49.2038 18.5403 52.1317 21.1666 56.3338 21.1666C58.3833 21.1666 59.9333 20.7 61.1044 20.0435V16.5879C59.9334 17.1754 58.59 17.5382 56.885 17.5382C55.2144 17.5382 53.7333 16.9507 53.5439 14.912H61.9656C61.9656 14.6872 62 13.7888 62 13.3742ZM53.4922 11.7328C53.4922 9.78038 54.6806 8.96824 55.7656 8.96824C56.8161 8.96824 57.9356 9.78038 57.9356 11.7328H53.4922Z" fill="#6772E5"/>
</g>
<defs>
<clipPath id="clip0_1005_11059">
<rect width="62" height="26" fill="white"/>
</clipPath>
</defs>
</svg>
