<svg width="62" height="37" viewBox="0 0 62 37" fill="none" xmlns="http://www.w3.org/2000/svg">
<path fill-rule="evenodd" clip-rule="evenodd" d="M23.3013 18.2618C23.3013 12.4903 25.999 7.35242 30.1992 4.02656C27.1019 1.57428 23.1895 0.106201 18.9314 0.106201C8.89895 0.106201 0.765625 8.23499 0.765625 18.2614C0.765625 28.2882 8.89856 36.4166 18.9314 36.4166C23.1895 36.4166 27.1019 34.949 30.1992 32.4967C25.999 29.1712 23.3013 24.0329 23.3013 18.2614V18.2618Z" fill="#DE2C1D"/>
<path fill-rule="evenodd" clip-rule="evenodd" d="M23.2988 18.2611C23.2988 24.033 25.9965 29.1709 30.1967 32.4964C34.397 29.1709 37.0942 24.0326 37.0942 18.2611C37.0942 12.4896 34.3966 7.35174 30.1967 4.02588C25.9965 7.35135 23.2988 12.4896 23.2988 18.2611Z" fill="#ED6100"/>
<path fill-rule="evenodd" clip-rule="evenodd" d="M41.4667 0.105713C37.2086 0.105713 33.2962 1.5738 30.1992 4.02608C34.3994 7.35154 37.0967 12.4898 37.0967 18.2613C37.0967 24.0332 34.399 29.1711 30.1992 32.4966C33.2962 34.9489 37.2086 36.4166 41.4667 36.4166C51.4991 36.4166 59.632 28.2882 59.632 18.2613C59.632 8.2345 51.4991 0.106104 41.4667 0.106104V0.105713ZM60.9089 28.7404V27.9696L60.6586 28.6348H60.3825L60.1322 27.9712V28.7404H59.8718V27.6292H60.2449L60.5214 28.3405L60.7951 27.6292H61.169V28.7404H60.9081H60.9089ZM59.0415 28.7404V27.8688H58.6884V27.6292H59.6543V27.8688H59.3016V28.7404H59.0411H59.0415Z" fill="#F79F06"/>
</svg>
