<svg width="61" height="19" viewBox="0 0 61 19" fill="none" xmlns="http://www.w3.org/2000/svg">
<path fill-rule="evenodd" clip-rule="evenodd" d="M21.975 18.5286L25.0227 0.645725H29.8968L26.8473 18.5286H21.975ZM44.526 1.08657C43.5602 0.72359 42.047 0.335449 40.1572 0.335449C35.3411 0.334857 31.948 2.76081 31.9195 6.23691C31.8923 8.80556 34.3416 10.2397 36.1906 11.0953C38.0877 11.9711 38.7258 12.5307 38.7166 13.3134C38.7044 14.5116 37.2013 15.0596 35.8003 15.0596C33.8496 15.0596 32.8131 14.7887 31.2122 14.1211L30.584 13.8363L29.8998 17.8397C31.0384 18.3391 33.1435 18.7717 35.3293 18.7942C40.453 18.7939 43.7793 16.3967 43.8172 12.6846C43.8355 10.65 42.537 9.10222 39.725 7.82589C38.0211 6.99809 36.9775 6.44682 36.9887 5.60895C36.9887 4.86554 37.8719 4.0709 39.78 4.0709C41.3744 4.04573 42.5284 4.39361 43.4282 4.75599L43.8651 4.96205L44.5257 1.08686L44.526 1.08657ZM57.0252 0.662601H53.2587C52.0919 0.662601 51.2185 0.981759 50.706 2.14618L43.4672 18.534H48.5856C48.5856 18.534 49.4226 16.3309 49.6121 15.8472C50.1716 15.8472 55.1437 15.8549 55.8546 15.8549C56.0005 16.4807 56.4476 18.5343 56.4476 18.5343L60.9709 18.534L57.0255 0.662601H57.0252ZM51.0145 12.1893C51.4178 11.159 52.9564 7.19083 52.9564 7.19083C52.928 7.2382 53.3564 6.15549 53.6027 5.48401L53.9325 7.02533C53.9325 7.02533 54.8654 11.2946 55.0605 12.1896L51.0142 12.1893H51.0145ZM17.8869 0.658752L13.115 12.8537L12.6063 10.3756C11.7181 7.51857 8.94994 4.42381 5.85547 2.8742L10.2192 18.5132L15.3763 18.507L23.05 0.658752H17.8869Z" fill="#191E70"/>
<path fill-rule="evenodd" clip-rule="evenodd" d="M8.68773 0.647949H0.827799L0.765625 1.0201C6.88055 2.49983 10.9266 6.07748 12.6061 10.3755L10.897 2.15788C10.6021 1.02543 9.74616 0.687622 8.68773 0.647949Z" fill="#F7B600"/>
</svg>
