<svg width="76" height="19" viewBox="0 0 76 19" fill="none" xmlns="http://www.w3.org/2000/svg">
<g clip-path="url(#clip0_775_18835)">
<path fill-rule="evenodd" clip-rule="evenodd" d="M6.9793 4.64819H12.1478C14.9227 4.64819 15.9687 6.05106 15.8026 8.11844C15.538 11.5272 13.4768 13.4099 10.7449 13.4099H9.36663C8.9913 13.4099 8.73904 13.6561 8.64059 14.3329L8.05606 18.24C8.01914 18.4923 7.88378 18.6399 7.68689 18.6584H4.43815C4.1305 18.6584 4.0259 18.4246 4.10589 17.92L6.08098 5.38654C6.16096 4.88816 6.43169 4.64819 6.9793 4.64819Z" fill="#009EE3"/>
<path fill-rule="evenodd" clip-rule="evenodd" d="M29.4127 4.41436C31.154 4.41436 32.7661 5.36191 32.5446 7.71847C32.28 10.518 30.7787 12.0686 28.4098 12.0747H26.3424C26.0471 12.0747 25.8994 12.3147 25.8256 12.8131L25.4256 15.3542C25.3641 15.7357 25.1672 15.9265 24.878 15.9265H22.9522C22.6445 15.9265 22.5399 15.7296 22.6076 15.2927L24.1951 5.09733C24.275 4.59279 24.4596 4.4082 24.8042 4.4082H29.4127V4.41436ZM26.2747 9.87199H27.8437C28.8221 9.83507 29.4743 9.15825 29.5419 7.93382C29.5789 7.17702 29.0682 6.63556 28.256 6.64171L26.7793 6.64786L26.2747 9.87199ZM37.7745 15.1512C37.953 14.9912 38.1314 14.9112 38.1068 15.1081L38.0453 15.5819C38.0145 15.828 38.113 15.9572 38.3406 15.9572H40.0511C40.3403 15.9572 40.4818 15.8403 40.5495 15.3973L41.6017 8.78293C41.657 8.45067 41.5709 8.29069 41.3186 8.29069H39.4358C39.2635 8.29069 39.1836 8.38299 39.1405 8.64141L39.0728 9.0475C39.0359 9.2567 38.9374 9.29977 38.8513 9.08442C38.5314 8.32761 37.7192 7.9892 36.5809 8.01996C33.9413 8.07534 32.1692 10.075 31.9785 12.6408C31.8308 14.6282 33.2522 16.1849 35.1288 16.1849C36.4886 16.1787 37.0977 15.7788 37.7745 15.1512ZM36.3409 14.136C35.2088 14.136 34.4151 13.2315 34.5812 12.1178C34.7473 11.0103 35.8056 10.0996 36.9439 10.0996C38.0822 10.0996 38.8698 11.0041 38.7036 12.1178C38.5375 13.2253 37.4792 14.136 36.3409 14.136ZM44.9427 8.26608H43.2076C42.8507 8.26608 42.703 8.53066 42.8199 8.86291L44.9735 15.1635L42.863 18.16C42.6846 18.4122 42.8261 18.6399 43.0722 18.6399H45.0227C45.0473 18.6399 45.0658 18.646 45.0904 18.646C45.2996 18.646 45.4903 18.5353 45.6011 18.3569L52.2216 8.86291C52.4246 8.57373 52.3323 8.26608 51.9939 8.26608H50.1481C49.8343 8.26608 49.705 8.38914 49.5266 8.65372L46.764 12.6531L45.5334 8.64141C45.4595 8.39529 45.2811 8.26608 44.9427 8.26608Z" fill="#113984"/>
<path fill-rule="evenodd" clip-rule="evenodd" d="M59.1061 4.41436C60.8474 4.41436 62.4594 5.36191 62.2379 7.71847C61.9733 10.518 60.472 12.0686 58.1032 12.0747H56.0358C55.7404 12.0747 55.5928 12.3147 55.5189 12.8131L55.119 15.3542C55.0575 15.7357 54.8606 15.9265 54.5714 15.9265H52.6455C52.3379 15.9265 52.2333 15.7296 52.301 15.2927L53.8946 5.09733C53.9746 4.59894 54.1591 4.4082 54.5037 4.4082L59.1061 4.41436ZM55.9743 9.87199H57.5433C58.5216 9.83507 59.1738 9.15825 59.2415 7.93382C59.2784 7.17702 58.7677 6.63556 57.9555 6.64171L56.4788 6.64786L55.9743 9.87199ZM67.4679 15.1512C67.6463 14.9912 67.8248 14.9112 67.8002 15.1081L67.7386 15.5819C67.7079 15.828 67.8063 15.9572 68.034 15.9572H69.7445C70.0337 15.9572 70.1752 15.8403 70.2429 15.3973L71.295 8.78293C71.3504 8.45067 71.2643 8.29069 71.012 8.29069H69.1353C68.9631 8.29069 68.8831 8.38299 68.84 8.64141L68.7723 9.0475C68.7354 9.2567 68.637 9.29977 68.5508 9.08442C68.2309 8.32761 67.4187 7.9892 66.2865 8.01996C63.6469 8.07534 61.8749 10.075 61.6842 12.6408C61.5365 14.6282 62.9578 16.1849 64.8345 16.1849C66.1942 16.1849 66.8034 15.7849 67.4864 15.1573L67.4679 15.1512ZM66.0404 14.136C64.9083 14.136 64.1146 13.2315 64.2807 12.1178C64.4468 11.0103 65.5051 10.0996 66.6434 10.0996C67.7755 10.0996 68.5693 11.0041 68.4031 12.1178C68.237 13.2253 67.1726 14.136 66.0404 14.136ZM73.9223 15.9634H71.9472C71.9411 15.9634 71.9411 15.9634 71.9349 15.9634C71.8057 15.9634 71.7011 15.8588 71.7011 15.7296C71.7011 15.7173 71.7011 15.705 71.7011 15.6988L73.4362 4.71585C73.4731 4.56203 73.6085 4.45127 73.7623 4.45127H75.7374C75.7436 4.45127 75.7436 4.45127 75.7497 4.45127C75.8789 4.45127 75.9835 4.55587 75.9835 4.68508C75.9835 4.69739 75.9835 4.7097 75.9835 4.71585L74.2484 15.6988C74.2177 15.8526 74.0823 15.9634 73.9223 15.9634Z" fill="#009EE3"/>
<path fill-rule="evenodd" clip-rule="evenodd" d="M3.74849 0.334961H8.92309C10.3813 0.334961 12.1103 0.384184 13.2609 1.39942C14.03 2.08239 14.4361 3.1653 14.3438 4.33436C14.0239 8.28453 11.6673 10.4934 8.49854 10.4934H5.94508C5.50822 10.4934 5.22519 10.7826 5.10213 11.5579L4.38839 16.0926C4.33917 16.3879 4.21611 16.5602 3.98845 16.5787H0.801241C0.450525 16.5787 0.321314 16.3141 0.413607 15.7234L2.70864 1.19637C2.80094 0.611842 3.12089 0.334961 3.74849 0.334961Z" fill="#113984"/>
<path fill-rule="evenodd" clip-rule="evenodd" d="M5.17578 11.1027L6.08026 5.38659C6.16025 4.88821 6.43098 4.64209 6.97859 4.64209H12.147C13.0023 4.64209 13.6914 4.77745 14.2329 5.02357C13.716 8.53689 11.4394 10.4935 8.46144 10.4935H5.92028C5.57572 10.4935 5.3296 10.6658 5.17578 11.1027Z" fill="#172C70"/>
</g>
<defs>
<clipPath id="clip0_775_18835">
<rect width="75.607" height="18.3172" fill="white" transform="translate(0.382812 0.334961)"/>
</clipPath>
</defs>
</svg>
