<svg width="79" height="52" viewBox="0 0 79 52" fill="none" xmlns="http://www.w3.org/2000/svg">
<path d="M34.2252 23.4578H28.2739V16.002H34.2252V17.5551H30.0548V18.8985H34.1266V20.4266H30.0548V21.9158H34.2252V23.4578ZM20.9625 23.4578L18.3744 17.6148V23.4592H14.7486L14.0637 21.7963H10.3546L9.66276 23.4592H7.7276L10.9186 16.0034H13.5636L16.5963 23.0633V16.0034H19.5052L21.8377 21.0614L23.9785 16.0034H26.9486V23.4592H25.1218L25.1148 17.6204L22.5309 23.4592L20.9625 23.4578ZM13.4192 20.2418L12.2008 17.2703L10.9894 20.2418H13.4192ZM42.2436 31.2915C42.2436 33.3628 40.6989 33.7907 39.1416 33.7907H36.9188V36.2912H33.4556L31.2606 33.8226L28.9796 36.2912H21.9211V28.8354H29.0865L31.2815 31.2776L33.5487 28.8354H39.2416C40.6558 28.834 42.2436 29.2272 42.2436 31.2915ZM30.1146 32.5487L28.1655 30.3774H23.6992V31.7333H27.6098V33.2558H23.6992V34.7395H28.078L30.1146 32.5487ZM35.1435 29.6342L32.4067 32.5737L35.1435 35.6133V29.6342ZM40.3307 31.2915C40.3307 30.6386 39.8862 30.376 39.2416 30.376H36.9188V32.2751H39.2194C39.9056 32.2764 40.3307 31.9361 40.3307 31.2915ZM37.2453 23.4578H35.4616V16.002H39.5597C40.4696 16.002 41.1406 16.0256 41.7185 16.359C42.2798 16.6924 42.6187 17.1786 42.6187 18.0108C42.6187 19.1985 41.8269 19.8139 41.3629 19.9973C41.7533 20.146 42.0867 20.4085 42.245 20.6252C42.4979 20.9961 42.5409 21.3268 42.5409 21.9922V23.4578H40.7433L40.735 22.5173C40.735 22.0686 40.778 21.424 40.4544 21.0656C40.1946 20.8044 39.7973 20.7475 39.1555 20.7475H37.2453V23.4578ZM37.2425 19.211H39.4083C39.7542 19.211 40.0432 19.2069 40.2904 19.0582C40.5197 18.9374 40.6572 18.6748 40.6572 18.3497C40.6572 18.0302 40.5141 17.7996 40.2835 17.6912C40.0723 17.5718 39.7473 17.5565 39.4389 17.5565H37.2439L37.2425 19.211ZM45.4694 16.0034H43.6509V23.4592H45.4694V16.0034ZM47.2976 22.634C46.6696 22.0005 46.3418 21.142 46.3418 19.7875C46.3418 18.6817 46.5377 17.6704 47.3017 16.8716C47.8755 16.277 48.7798 16.0034 50.0079 16.0034H51.7319V17.6009H50.044C49.3897 17.6009 49.0243 17.6982 48.6715 18.0427C48.3672 18.3567 48.1602 18.9485 48.1602 19.732C48.1602 20.5294 48.3158 21.1059 48.6506 21.481C48.9243 21.7769 49.4272 21.8658 49.8926 21.8658H50.6914L53.2086 16.0034H55.8773L58.8946 23.0549V16.0034H61.6077L64.7417 21.1962V16.0034H66.5644V23.4592H64.0416L60.6603 17.8635V23.4592H57.0331L56.3385 21.7963H52.6376L51.968 23.4592H49.8815C49.0132 23.4578 47.9171 23.2661 47.2976 22.634ZM53.2753 20.2418H55.7342L54.4992 17.2703L53.2753 20.2418ZM49.5342 18.9235C49.5175 18.9471 49.3925 19.2152 49.3925 19.732C49.3925 20.2432 49.4744 20.4891 49.5342 20.6002C49.5967 20.6169 49.712 20.6363 49.8842 20.6363L50.6566 18.8318H50.0482C49.6286 18.8304 49.5856 18.8748 49.5342 18.9235ZM78.9991 2.74206V49.5511C78.9991 50.6667 78.0961 51.571 76.9792 51.571H2.55701C1.44009 51.571 0.537109 50.6653 0.537109 49.5498V2.74206C0.537109 1.62654 1.44009 0.722168 2.55701 0.722168H76.9792C78.0961 0.722168 78.9991 1.62654 78.9991 2.74206ZM20.9625 24.69H22.5281C23.0171 24.69 23.4561 24.4025 23.6534 23.9565L23.8895 23.4286V23.4592C23.8895 24.1385 24.4397 24.6886 25.1204 24.6886H26.9472C27.1972 24.6886 27.4153 24.5942 27.6112 24.4678C27.8057 24.5942 28.0238 24.6886 28.2752 24.6886H34.2266C34.4572 24.6886 34.6614 24.6081 34.8434 24.4983C35.0295 24.6081 35.231 24.6886 35.4616 24.6886H37.2453C37.9246 24.6886 38.4761 24.1371 38.4761 23.4578V21.9769H39.1555C39.3097 21.9769 39.4194 21.9811 39.5014 21.9866C39.5097 22.1131 39.5069 22.2631 39.5069 22.3631L39.5041 22.527L39.5111 23.4675C39.5167 24.1427 40.0668 24.6886 40.7433 24.6886H42.5409C42.7438 24.6886 42.9257 24.6275 43.0938 24.54C43.2647 24.6275 43.4495 24.6886 43.6509 24.6886H45.4708C46.0667 24.6886 46.5391 24.258 46.6544 23.6967C47.6671 24.5455 49.0868 24.6886 49.8801 24.6886H51.9667C52.4654 24.6886 52.9183 24.383 53.103 23.9176L53.467 23.0244H55.5202L55.8967 23.9301C56.0912 24.3886 56.5371 24.6872 57.0331 24.6872H60.6603C61.3382 24.6872 61.8911 24.1357 61.8911 23.4564V22.2798L62.9844 24.0927C63.2081 24.4622 63.6068 24.6872 64.0416 24.6872H66.5644C67.2423 24.6872 67.7952 24.1357 67.7952 23.4564V16.0006C67.7952 15.3213 67.2451 14.7698 66.5644 14.7698H64.7417C64.061 14.7698 63.5081 15.3213 63.5081 16.0006V16.7702L62.6607 15.3657C62.4384 14.9962 62.0397 14.7711 61.6077 14.7711H58.8946C58.2139 14.7711 57.6624 15.3227 57.6624 16.002V17.048L57.0081 15.5171C56.8122 15.0657 56.369 14.7711 55.8773 14.7711H53.2086C52.9363 14.7711 52.6793 14.8601 52.4723 15.0156C52.2681 14.8614 52.0111 14.7711 51.7374 14.7711H50.0134C48.552 14.7711 47.4656 15.1268 46.6683 15.8172C46.578 15.2296 46.089 14.7711 45.4735 14.7711H43.6551C43.1702 14.7711 42.759 15.0587 42.559 15.4644C42.4826 15.4088 42.4215 15.3435 42.3367 15.2921C41.499 14.8086 40.6225 14.7711 39.5625 14.7711H35.4644C35.2337 14.7711 35.0309 14.8517 34.8462 14.9615C34.6642 14.8517 34.46 14.7711 34.2294 14.7711H28.278C28.0266 14.7711 27.8085 14.8642 27.614 14.992C27.4181 14.8642 27.2 14.7711 26.95 14.7711H23.9798C23.4881 14.7711 23.0407 15.067 22.849 15.5227L21.7905 18.0177L20.6249 15.4866C20.4221 15.0518 19.9845 14.7711 19.5066 14.7711H16.5963C15.9155 14.7711 15.3654 15.3227 15.3654 16.002V17.073L14.6972 15.5144C14.5013 15.0629 14.0582 14.7698 13.565 14.7698H10.92C10.4268 14.7698 9.98089 15.0643 9.78779 15.5158L6.59819 22.9716C6.43426 23.3508 6.47455 23.787 6.70099 24.1343C6.92881 24.4789 7.31501 24.6872 7.72899 24.6872H9.66554C10.1601 24.6872 10.6102 24.3872 10.7991 23.9287L11.1756 23.023H13.2399L13.6109 23.9232C13.8012 24.3844 14.2499 24.6859 14.75 24.6859H18.3744C19.0537 24.6859 19.6053 24.1343 19.6053 23.455V23.4259L19.8386 23.9551C20.0345 24.4025 20.4763 24.69 20.9625 24.69ZM73.0394 33.9379C73.0394 32.896 72.7616 32.1209 72.1503 31.4929C72.1378 31.4804 72.1239 31.4679 72.1142 31.4568C72.4546 31.2373 72.6768 30.8553 72.6768 30.4205V28.834C72.6768 28.1533 72.1267 27.6018 71.4474 27.6018H67.8744C66.7616 27.6018 65.9267 27.9282 65.3155 28.4242C65.1446 27.9477 64.7028 27.6018 64.1652 27.6018H60.595C59.6142 27.6018 58.8362 27.8463 58.25 28.2436C58.0388 27.8671 57.6499 27.6018 57.1887 27.6018H51.2429C50.7622 27.6018 50.3607 27.8824 50.1579 28.2811C50.0718 28.2228 50.0121 28.1519 49.919 28.0977C49.0591 27.6379 48.1422 27.6018 47.1948 27.6018H43.0799C42.5979 27.6018 42.1922 27.8838 41.9908 28.2867C41.3671 27.8782 40.4891 27.6018 39.2416 27.6018H33.5487C33.2055 27.6018 32.8791 27.7435 32.6457 27.9949L31.2968 29.4508L30.002 28.0102C29.77 27.749 29.438 27.6018 29.0865 27.6018H21.9211C21.2417 27.6018 20.6902 28.1519 20.6902 28.834V36.2898C20.6902 36.9692 21.2403 37.5221 21.9211 37.5221H28.9796C29.3227 37.5221 29.6492 37.3776 29.8826 37.1261L31.2426 35.6536L32.5331 37.1067C32.7665 37.3693 33.1027 37.5193 33.4542 37.5193H36.9175C37.5982 37.5193 38.1497 36.9692 38.1497 36.2885V35.0173H39.1402C40.3432 35.0173 41.2156 34.7701 41.8477 34.3936V36.2885C41.8477 36.9678 42.3979 37.5193 43.0799 37.5193H44.8706C45.5499 37.5193 46.1015 36.9692 46.1015 36.2885V34.7951H46.7738C46.9378 34.7951 47.0531 34.8006 47.135 34.8062C47.1434 34.9381 47.1434 35.0993 47.1406 35.2049V36.2885C47.1406 36.9678 47.6907 37.5193 48.3728 37.5193H50.1607C50.358 37.5193 50.5372 37.4623 50.7025 37.3804C50.8664 37.4651 51.0484 37.5193 51.247 37.5193H57.1928C57.3873 37.5193 57.5637 37.4651 57.7263 37.3859C57.8902 37.4651 58.0652 37.5193 58.2611 37.5193H61.7313C62.8385 37.5193 63.7332 37.2498 64.4097 36.7705C64.5986 37.2095 65.0335 37.5193 65.5419 37.5193H69.0121C71.5349 37.5221 73.0394 36.1815 73.0394 33.9379ZM61.9606 31.7597L61.0034 31.7319C60.6992 31.7319 60.4991 31.7124 60.3088 31.6471C60.0851 31.5624 59.9198 31.3735 59.9198 31.0915C59.9198 30.8553 59.9921 30.6761 60.1893 30.5538C60.3671 30.433 60.5769 30.4191 60.9034 30.4191H64.1708V28.8326H60.6005C58.7307 28.8326 58.0527 29.969 58.0527 31.0526C58.0527 33.41 60.1407 33.3045 61.805 33.3586C62.1175 33.3586 62.3037 33.41 62.4398 33.5239C62.5649 33.6295 62.6565 33.799 62.6565 34.0171C62.6565 34.2199 62.5704 34.3894 62.4482 34.5033C62.2981 34.645 62.0578 34.6881 61.7216 34.6881H58.2653V36.2871H61.7355C63.5317 36.2871 64.5361 35.5383 64.5361 33.9338C64.5361 33.1683 64.3486 32.7127 64.0013 32.3542C63.5915 31.9486 62.9274 31.7833 61.9606 31.7597ZM48.9938 32.8252C49.3883 32.9697 49.7148 33.235 49.8648 33.4517C50.119 33.8157 50.1551 34.1546 50.1607 34.8117V36.2898H48.3728V35.3577C48.3728 34.909 48.4159 34.2449 48.0852 33.8976C47.8241 33.6309 47.4281 33.567 46.778 33.567H44.8748V36.2898H43.0855V28.834H47.1989C48.1005 28.834 48.7562 28.8715 49.3452 29.1841C49.9051 29.523 50.2593 29.9898 50.2593 30.84C50.2565 32.0333 49.4605 32.6404 48.9938 32.8252ZM48.2853 31.1831C48.2853 30.865 48.1477 30.633 47.9171 30.5122C47.7004 30.3844 47.3809 30.3774 47.0669 30.3774H44.872V32.0528H47.0378C47.3851 32.0528 47.681 32.0403 47.9199 31.8986C48.1477 31.7597 48.2853 31.5013 48.2853 31.1831ZM51.2457 36.2898H57.1914V34.7437L53.0183 34.7353V33.253H57.0886V31.7319H53.0183V30.3746H57.1914V28.834H51.2457V36.2898ZM69.2413 31.7597L68.2828 31.7319C67.9813 31.7319 67.7799 31.7124 67.5882 31.6471C67.3673 31.5624 67.2006 31.3735 67.2006 31.0915C67.2006 30.8553 67.2729 30.6761 67.4687 30.5538C67.6479 30.433 67.8591 30.4191 68.1842 30.4191H71.453V28.8326H67.8799C66.0128 28.8326 65.3321 29.969 65.3321 31.0526C65.3321 33.41 67.4215 33.3045 69.0872 33.3586C69.3983 33.3586 69.5831 33.41 69.722 33.5239C69.8443 33.6295 69.9373 33.799 69.9373 34.0171C69.9373 34.2199 69.8498 34.3894 69.7303 34.5033C69.5789 34.645 69.3386 34.6881 69.0024 34.6881H65.5475V36.2871H69.0177C70.8139 36.2871 71.8155 35.5383 71.8155 33.9338C71.8155 33.1683 71.6308 32.7127 71.2807 32.3542C70.8737 31.9486 70.2082 31.7833 69.2413 31.7597Z" fill="#0077A6"/>
</svg>
