<svg width="14" height="14" viewBox="0 0 14 14" fill="none" xmlns="http://www.w3.org/2000/svg">
<path fill-rule="evenodd" clip-rule="evenodd" d="M7.26672 0C7.98348 0 8.5645 0.58675 8.5645 1.31053V5.24212H12.4578C13.1746 5.24212 13.7556 5.82887 13.7556 6.55264C13.7556 7.27645 13.1746 7.86317 12.4578 7.86317H8.5645V11.7948C8.5645 12.5186 7.98348 13.1053 7.26672 13.1053C6.54997 13.1053 5.96894 12.5186 5.96894 11.7948V7.86317H2.07561C1.35887 7.86317 0.777832 7.27645 0.777832 6.55264C0.777832 5.82885 1.35887 5.24212 2.07561 5.24212H5.96894V1.31053C5.96894 0.58675 6.54997 0 7.26672 0Z" fill="white"/>
</svg>
