<svg width="25" height="25" viewBox="0 0 25 25" fill="none" xmlns="http://www.w3.org/2000/svg">
<path fill-rule="evenodd" clip-rule="evenodd" d="M12.4961 24.1077C19.1235 24.1077 24.4961 18.7351 24.4961 12.1077C24.4961 5.48025 19.1235 0.107666 12.4961 0.107666C5.86867 0.107666 0.496094 5.48025 0.496094 12.1077C0.496094 18.7351 5.86867 24.1077 12.4961 24.1077ZM13.9961 7.60767C13.9961 6.77925 13.3245 6.10767 12.4961 6.10767C11.6677 6.10767 10.9961 6.77925 10.9961 7.60767V10.6077H7.99609C7.16767 10.6077 6.49609 11.2792 6.49609 12.1077C6.49609 12.9361 7.16767 13.6077 7.99609 13.6077H10.9961V16.6077C10.9961 17.4361 11.6677 18.1077 12.4961 18.1077C13.3245 18.1077 13.9961 17.4361 13.9961 16.6077V13.6077H16.9961C17.8245 13.6077 18.4961 12.9361 18.4961 12.1077C18.4961 11.2792 17.8245 10.6077 16.9961 10.6077H13.9961V7.60767Z" fill="white"/>
</svg>
