<svg width="26" height="24" viewBox="0 0 26 24" fill="none" xmlns="http://www.w3.org/2000/svg">
<path d="M1.74162 0.800049C0.868749 0.800049 0.161133 1.5164 0.161133 2.40005C0.161133 3.2837 0.868749 4.00005 1.74162 4.00005H19.127C19.9999 4.00005 20.7075 3.2837 20.7075 2.40005C20.7075 1.5164 19.9999 0.800049 19.127 0.800049H1.74162Z" fill="#161828"/>
<path d="M1.74162 7.19995C0.868749 7.19995 0.161133 7.9163 0.161133 8.79995C0.161133 9.6836 0.868749 10.4 1.74162 10.4H9.64406C10.5169 10.4 11.2245 9.6836 11.2245 8.79995C11.2245 7.9163 10.5169 7.19995 9.64406 7.19995H1.74162Z" fill="#161828"/>
<path d="M1.74162 13.6001C0.868749 13.6001 0.161133 14.3164 0.161133 15.2001C0.161133 16.0838 0.868749 16.8001 1.74162 16.8001H8.06357C8.93645 16.8001 9.64406 16.0838 9.64406 15.2001C9.64406 14.3164 8.93645 13.6001 8.06357 13.6001H1.74162Z" fill="#161828"/>
<path d="M17.5461 21.6C17.5461 22.4836 18.2537 23.2 19.1266 23.2C19.9995 23.2 20.7071 22.4836 20.7071 21.6V12.6627L22.7505 14.7313C23.3677 15.3561 24.3685 15.3561 24.9857 14.7313C25.6028 14.1065 25.6028 13.0934 24.9857 12.4686L20.2442 7.66858C19.9479 7.36853 19.5458 7.19995 19.1266 7.19995C18.7075 7.19995 18.3054 7.36853 18.0091 7.66858L13.2676 12.4686C12.6504 13.0934 12.6504 14.1065 13.2676 14.7313C13.8848 15.3561 14.8856 15.3561 15.5027 14.7313L17.5461 12.6627V21.6Z" fill="#161828"/>
</svg>
