<svg width="21" height="25" viewBox="0 0 21 25" fill="none" xmlns="http://www.w3.org/2000/svg">
<path d="M10.7544 4.03047C10.336 4.03047 9.99678 3.69128 9.99678 3.27283V1.75764C9.99678 1.33923 10.336 1 10.7544 1C11.1728 1 11.5121 1.33919 11.5121 1.75764V3.27287C11.5121 3.69128 11.1728 4.03047 10.7544 4.03047ZM13.7849 4.03047C13.3665 4.03047 13.0272 3.69128 13.0272 3.27283V1.75764C13.0272 1.33923 13.3664 1 13.7849 1C14.2033 1 14.5425 1.33919 14.5425 1.75764V3.27287C14.5425 3.69128 14.2033 4.03047 13.7849 4.03047ZM16.8154 4.03047C16.397 4.03047 16.0578 3.69128 16.0578 3.27283V1.75764C16.0578 1.33923 16.3969 1 16.8154 1C17.2338 1 17.573 1.33919 17.573 1.75764V3.27287C17.573 3.69128 17.2338 4.03047 16.8154 4.03047ZM7.72395 4.03047C8.14235 4.03047 8.48159 3.69128 8.48159 3.27283V1.75764C8.48159 1.33923 8.1424 1 7.72395 1C7.30554 1 6.96631 1.33919 6.96631 1.75764V3.27287C6.96631 3.69128 7.30549 4.03047 7.72395 4.03047ZM4.69343 4.03047C5.11184 4.03047 5.45107 3.69128 5.45107 3.27283V1.75764C5.45107 1.33923 5.11188 1 4.69343 1C4.27503 1 3.93579 1.33919 3.93579 1.75764V3.27287C3.93584 3.69128 4.27503 4.03047 4.69343 4.03047Z" stroke="black" stroke-miterlimit="10" stroke-linecap="round" stroke-linejoin="round"/>
<path d="M10.7544 22.8763C12.8465 22.8763 14.5425 21.1803 14.5425 19.0882C14.5425 16.996 12.8465 15.3 10.7544 15.3C8.6623 15.3 6.96631 16.996 6.96631 19.0882C6.96631 21.1803 8.6623 22.8763 10.7544 22.8763Z" stroke="black" stroke-miterlimit="10" stroke-linecap="round" stroke-linejoin="round"/>
<path d="M15.2605 21.7024C15.7072 20.9341 15.9632 20.0406 15.9632 19.0881C15.9632 16.2114 13.6311 13.8794 10.7544 13.8794C7.87769 13.8794 5.54565 16.2114 5.54565 19.0881C5.54565 21.9649 7.87769 24.2969 10.7544 24.2969C12.0875 24.2969 13.3044 23.7958 14.2255 22.9708" stroke="black" stroke-miterlimit="10" stroke-linecap="round" stroke-linejoin="round"/>
<path d="M10.7544 16.8154V19.0882L11.5305 19.8644M1.00014 16.2152V18.1413C1.00014 18.6644 1.42389 19.0881 1.94702 19.0881H5.54561M1.00014 14.5746V5.54596M20.5086 6.92502V5.54596M20.5086 8.56565V18.1413C20.5086 18.6644 20.0848 19.0881 19.5617 19.0881H15.9631M6.96625 2.51526H5.45102M13.0272 2.51526H11.512M17.5729 2.51526H19.5617C20.0849 2.51526 20.5087 2.93906 20.5087 3.46227V5.54573H1V3.46227C1 2.93906 1.4238 2.51526 1.94702 2.51526H3.93578M16.0577 2.51526H14.5425M9.99672 2.51526H8.48148M7.91327 8.95504H6.77683C6.67636 8.95504 6.58002 8.91513 6.50898 8.84409C6.43794 8.77306 6.39803 8.67671 6.39803 8.57624V7.43981C6.39803 7.33934 6.43794 7.24299 6.50898 7.17196C6.58002 7.10092 6.67636 7.06101 6.77683 7.06101H7.91327C8.01373 7.06101 8.11008 7.10092 8.18111 7.17196C8.25215 7.24299 8.29206 7.33934 8.29206 7.43981V8.57624C8.29207 8.62599 8.28227 8.67525 8.26324 8.72121C8.24421 8.76717 8.2163 8.80893 8.18113 8.84411C8.14595 8.87928 8.10419 8.90718 8.05823 8.92622C8.01227 8.94525 7.96301 8.95505 7.91327 8.95504ZM11.3226 8.95504H10.1861C10.0857 8.95504 9.98933 8.91513 9.91829 8.84409C9.84725 8.77306 9.80734 8.67671 9.80734 8.57624V7.43981C9.80734 7.33934 9.84725 7.24299 9.91829 7.17196C9.98933 7.10092 10.0857 7.06101 10.1861 7.06101H11.3226C11.423 7.06101 11.5194 7.10092 11.5904 7.17196C11.6615 7.24299 11.7014 7.33934 11.7014 7.43981V8.57624C11.7014 8.67671 11.6615 8.77306 11.5904 8.84409C11.5194 8.91513 11.423 8.95504 11.3226 8.95504ZM14.7319 8.95504H13.5955C13.495 8.95504 13.3986 8.91513 13.3276 8.84409C13.2566 8.77306 13.2167 8.67671 13.2167 8.57624V7.43981C13.2167 7.33934 13.2566 7.24299 13.3276 7.17196C13.3986 7.10092 13.495 7.06101 13.5955 7.06101H14.7319C14.8324 7.06101 14.9287 7.10092 14.9997 7.17196C15.0708 7.24299 15.1107 7.33934 15.1107 7.43981V8.57624C15.1107 8.67671 15.0708 8.77306 14.9997 8.84409C14.9287 8.91513 14.8324 8.95504 14.7319 8.95504ZM18.1412 8.95504H17.0047C16.955 8.95504 16.9057 8.94524 16.8598 8.92621C16.8138 8.90717 16.772 8.87927 16.7369 8.84409C16.7017 8.80892 16.6738 8.76716 16.6548 8.7212C16.6357 8.67524 16.6259 8.62599 16.6259 8.57624V7.43981C16.6259 7.39006 16.6357 7.3408 16.6548 7.29485C16.6738 7.24889 16.7017 7.20713 16.7369 7.17196C16.772 7.13678 16.8138 7.10888 16.8598 7.08984C16.9057 7.07081 16.955 7.06101 17.0047 7.06101H18.1412C18.2416 7.06101 18.338 7.10092 18.409 7.17196C18.48 7.24299 18.52 7.33934 18.52 7.43981V8.57624C18.52 8.62599 18.5102 8.67525 18.4911 8.72121C18.4721 8.76717 18.4442 8.80893 18.409 8.84411C18.3738 8.87928 18.3321 8.90718 18.2861 8.92622C18.2402 8.94525 18.1909 8.95505 18.1412 8.95504ZM4.504 12.3644H3.36756C3.31782 12.3644 3.26856 12.3546 3.2226 12.3355C3.17665 12.3165 3.13489 12.2886 3.09971 12.2534C3.06454 12.2182 3.03664 12.1765 3.0176 12.1305C2.99856 12.0846 2.98877 12.0353 2.98877 11.9856V10.8491C2.98877 10.7487 3.02867 10.6523 3.09971 10.5813C3.17075 10.5102 3.2671 10.4703 3.36756 10.4703H4.504C4.60446 10.4703 4.70081 10.5102 4.77185 10.5813C4.84289 10.6523 4.8828 10.7487 4.8828 10.8491V11.9856C4.8828 12.086 4.84289 12.1824 4.77185 12.2534C4.70081 12.3244 4.60446 12.3644 4.504 12.3644ZM7.91327 12.3644H6.77683C6.67636 12.3644 6.58002 12.3244 6.50898 12.2534C6.43794 12.1824 6.39803 12.086 6.39803 11.9856V10.8491C6.39803 10.7487 6.43794 10.6523 6.50898 10.5813C6.58002 10.5102 6.67636 10.4703 6.77683 10.4703H7.91327C8.01373 10.4703 8.11008 10.5102 8.18111 10.5813C8.25215 10.6523 8.29206 10.7487 8.29206 10.8491V11.9856C8.29207 12.0353 8.28227 12.0846 8.26324 12.1305C8.24421 12.1765 8.2163 12.2182 8.18113 12.2534C8.14595 12.2886 8.10419 12.3165 8.05823 12.3355C8.01227 12.3546 7.96301 12.3644 7.91327 12.3644ZM11.3226 12.3644H10.1861C10.0857 12.3644 9.98933 12.3244 9.91829 12.2534C9.84725 12.1824 9.80734 12.086 9.80734 11.9856V10.8491C9.80734 10.7487 9.84725 10.6523 9.91829 10.5813C9.98933 10.5102 10.0857 10.4703 10.1861 10.4703H11.3226C11.423 10.4703 11.5194 10.5102 11.5904 10.5813C11.6615 10.6523 11.7014 10.7487 11.7014 10.8491V11.9856C11.7014 12.086 11.6615 12.1824 11.5904 12.2534C11.5194 12.3244 11.423 12.3644 11.3226 12.3644ZM14.7319 12.3644H13.5955C13.495 12.3644 13.3986 12.3244 13.3276 12.2534C13.2566 12.1824 13.2167 12.086 13.2167 11.9856V10.8491C13.2167 10.7487 13.2566 10.6523 13.3276 10.5813C13.3986 10.5102 13.495 10.4703 13.5955 10.4703H14.7319C14.8324 10.4703 14.9287 10.5102 14.9997 10.5813C15.0708 10.6523 15.1107 10.7487 15.1107 10.8491V11.9856C15.1107 12.086 15.0708 12.1824 14.9997 12.2534C14.9287 12.3244 14.8324 12.3644 14.7319 12.3644ZM16.6259 10.8491V11.9856C16.6259 12.0353 16.6357 12.0846 16.6548 12.1305C16.6738 12.1765 16.7017 12.2182 16.7369 12.2534C16.772 12.2886 16.8138 12.3165 16.8598 12.3355C16.9057 12.3546 16.955 12.3644 17.0047 12.3644H18.1412C18.2416 12.3644 18.338 12.3244 18.409 12.2534C18.48 12.1824 18.52 12.086 18.52 11.9856V10.8491C18.52 10.7487 18.48 10.6523 18.409 10.5813C18.338 10.5102 18.2416 10.4703 18.1412 10.4703H17.0047C16.955 10.4703 16.9057 10.4801 16.8598 10.4992C16.8138 10.5182 16.772 10.5461 16.7369 10.5813C16.7017 10.6164 16.6738 10.6582 16.6548 10.7042C16.6357 10.7501 16.6259 10.7994 16.6259 10.8491Z" stroke="black" stroke-miterlimit="10" stroke-linecap="round" stroke-linejoin="round"/>
</svg>
