<svg width="26" height="20" viewBox="0 0 26 20" fill="none" xmlns="http://www.w3.org/2000/svg">
<path d="M4.51176 11.5365C5.31999 11.5365 5.97518 10.8813 5.97518 10.073C5.97518 9.26481 5.31999 8.60962 4.51176 8.60962C3.70354 8.60962 3.04834 9.26481 3.04834 10.073C3.04834 10.8813 3.70354 11.5365 4.51176 11.5365Z" stroke="black" stroke-miterlimit="10" stroke-linecap="round" stroke-linejoin="round"/>
<path d="M12.0247 11.5365C12.8329 11.5365 13.4881 10.8813 13.4881 10.073C13.4881 9.26481 12.8329 8.60962 12.0247 8.60962C11.2165 8.60962 10.5613 9.26481 10.5613 10.073C10.5613 10.8813 11.2165 11.5365 12.0247 11.5365Z" stroke="black" stroke-miterlimit="10" stroke-linecap="round" stroke-linejoin="round"/>
<path d="M19.5359 11.5365C20.3442 11.5365 20.9994 10.8813 20.9994 10.073C20.9994 9.26481 20.3442 8.60962 19.5359 8.60962C18.7277 8.60962 18.0725 9.26481 18.0725 10.073C18.0725 10.8813 18.7277 11.5365 19.5359 11.5365Z" stroke="black" stroke-miterlimit="10" stroke-linecap="round" stroke-linejoin="round"/>
<path d="M1 10.0732H3.04879M21 10.0732H25M25 10.0732L23.6203 8.69342M25 10.0732L23.6203 11.4529M13.4878 10.0732H18.0732M5.97563 10.0732H10.561M2.56097 2.56097H6.4634M4.60121 4.12193H2.56097M4.95976 1H7.5365C7.80596 1 8.02423 1.21827 8.02423 1.48773V5.19493C8.02423 5.46439 7.80596 5.68314 7.5365 5.68314H5.77199L4.99163 6.72378C4.79654 6.98358 4.40588 6.98358 4.21078 6.72378L3.43042 5.68314H1.48773C1.21827 5.68314 1 5.46439 1 5.19493V1.48773C1 1.21827 1.21827 1 1.48773 1H3.26962M17.5854 2.56097H21.4878M19.6256 4.12193H17.5854M23.0486 3.95919V5.19493C23.0486 5.46439 22.8303 5.68314 22.5609 5.68314H20.7964L20.016 6.72378C19.8209 6.98358 19.4303 6.98358 19.2352 6.72378L18.4548 5.68314H16.5121C16.2427 5.68314 16.0244 5.46439 16.0244 5.19493V1.48773C16.0244 1.21827 16.2427 1 16.5121 1H22.5609C22.8303 1 23.0486 1.21827 23.0486 1.48773V2.26905M10.0732 16.0244H13.9756M12.1134 17.5854H10.0732M13.9755 19.1463H15.0489C15.3184 19.1463 15.5367 18.928 15.5367 18.6586V14.9514C15.5367 14.6819 15.3184 14.4632 15.0489 14.4632H13.1062L12.3254 13.4225C12.1303 13.1627 11.7401 13.1627 11.545 13.4225L10.7647 14.4632H9.00016C8.7307 14.4632 8.51243 14.6819 8.51243 14.9514V18.6586C8.51243 18.928 8.7307 19.1463 9.00016 19.1463H12.2853" stroke="black" stroke-miterlimit="10" stroke-linecap="round" stroke-linejoin="round"/>
</svg>
