<svg width="24" height="24" viewBox="0 0 24 24" fill="none" xmlns="http://www.w3.org/2000/svg">
<path fill-rule="evenodd" clip-rule="evenodd" d="M13.9408 1.61956C13.4258 1.612 12.8853 1.74618 12.479 2.12413L8.17133 6.13043C7.74236 6.53011 7.01102 7.30114 7.01102 8.50114V10.2992L3.24567 16.0923C3.03074 16.4274 2.95662 16.8337 3.03941 17.223C3.1222 17.6124 3.35521 17.9534 3.68787 18.172L7.01102 20.3311V21.0312C7.01325 21.4291 7.17222 21.81 7.45346 22.0914C7.7347 22.3728 8.11553 22.532 8.51338 22.5345H19.5307C19.9284 22.532 20.3091 22.373 20.5903 22.0918C20.8715 21.8105 21.0306 21.4298 21.0331 21.0322V16.0243C21.0331 15.8915 20.9803 15.7641 20.8864 15.6702C20.7925 15.5763 20.6651 15.5235 20.5323 15.5235C20.3995 15.5235 20.2721 15.5763 20.1782 15.6702C20.0843 15.7641 20.0315 15.8915 20.0315 16.0243V21.0322C20.0315 21.3175 19.817 21.5329 19.5307 21.5329H8.51433C8.44806 21.5346 8.38214 21.5228 8.32057 21.4983C8.259 21.4737 8.20306 21.4369 8.15614 21.3901C8.10922 21.3432 8.07231 21.2874 8.04763 21.2259C8.02296 21.1643 8.01104 21.0984 8.01259 21.0322V8.50019C8.01259 7.69704 8.46992 7.21893 8.85354 6.86177L13.1603 2.85641C13.3115 2.71563 13.6101 2.61547 13.9257 2.62019C14.2413 2.62492 14.5512 2.73925 14.691 2.86397L17.6636 5.50681H15.4356C15.331 5.21497 15.1391 4.96236 14.8861 4.7832C14.6331 4.60404 14.3311 4.507 14.0211 4.50523C13.1981 4.50523 12.5187 5.1846 12.5187 6.00759C12.5187 6.83059 13.1981 7.5109 14.0211 7.5109C14.3311 7.50913 14.6331 7.41209 14.8861 7.23294C15.1391 7.05378 15.331 6.80116 15.4356 6.50933H18.7899L19.1972 6.87122C19.5751 7.20665 20.0305 7.69326 20.0305 8.50019V10.0158C20.0305 10.0815 20.0435 10.1467 20.0687 10.2074C20.0938 10.2682 20.1307 10.3234 20.1772 10.3699C20.2237 10.4164 20.2789 10.4533 20.3397 10.4785C20.4004 10.5036 20.4656 10.5166 20.5313 10.5166C20.5971 10.5166 20.6622 10.5036 20.723 10.4785C20.7837 10.4533 20.8389 10.4164 20.8854 10.3699C20.9319 10.3234 20.9688 10.2682 20.994 10.2074C21.0192 10.1467 21.0321 10.0815 21.0321 10.0158V8.50114C21.0321 7.51941 20.5521 6.82397 20.1288 6.38271C20.6579 6.14933 21.0321 5.6183 21.0321 5.00696V4.00633C21.0321 3.1824 20.3537 2.50586 19.5298 2.50586H15.7928L15.3562 2.11846C14.9669 1.77169 14.4548 1.62712 13.9408 1.62051V1.61956ZM16.9191 3.50649H19.5298C19.8161 3.50649 20.0305 3.71909 20.0305 4.00539V5.00696C20.0305 5.29326 19.8161 5.50775 19.5298 5.50775H19.1707L16.9191 3.50649ZM14.022 5.50775C14.3055 5.50775 14.5238 5.72602 14.5238 6.00854C14.5238 6.292 14.3046 6.50933 14.023 6.50933C13.9569 6.51035 13.8914 6.49809 13.8301 6.47329C13.7689 6.44848 13.7133 6.41163 13.6666 6.36492C13.6199 6.31822 13.583 6.2626 13.5582 6.20138C13.5334 6.14016 13.5212 6.07459 13.5222 6.00854C13.5222 5.72602 13.7386 5.50775 14.022 5.50775ZM7.01102 12.138V19.1377L4.23307 17.3329C4.17672 17.2983 4.12801 17.2526 4.0899 17.1985C4.05178 17.1445 4.02506 17.0833 4.01136 17.0186C3.99766 16.9539 3.99727 16.8871 4.0102 16.8222C4.02314 16.7573 4.04914 16.6958 4.08661 16.6413L7.01102 12.138ZM11.5172 13.5204C11.3842 13.5204 11.2567 13.5732 11.1627 13.6672C11.0687 13.7612 11.0159 13.8887 11.0159 14.0216C11.0159 14.1546 11.0687 14.2821 11.1627 14.3761C11.2567 14.4701 11.3842 14.5229 11.5172 14.5229H13.0195C13.1523 14.5229 13.2797 14.4701 13.3736 14.3762C13.4675 14.2823 13.5203 14.1549 13.5203 14.0221C13.5203 13.8893 13.4675 13.7619 13.3736 13.668C13.2797 13.5741 13.1523 13.5213 13.0195 13.5213L11.5172 13.5204ZM14.5228 13.5213C14.39 13.5213 14.2626 13.5741 14.1687 13.668C14.0748 13.7619 14.022 13.8893 14.022 14.0221C14.022 14.1549 14.0748 14.2823 14.1687 14.3762C14.2626 14.4701 14.39 14.5229 14.5228 14.5229C14.6556 14.5229 14.783 14.4701 14.8769 14.3762C14.9709 14.2823 15.0236 14.1549 15.0236 14.0221C15.0236 13.8893 14.9709 13.7619 14.8769 13.668C14.783 13.5741 14.6556 13.5213 14.5228 13.5213ZM11.5172 15.5244C11.3843 15.5244 11.257 15.5772 11.1631 15.6711C11.0691 15.765 11.0164 15.8924 11.0164 16.0252C11.0164 16.158 11.0691 16.2854 11.1631 16.3793C11.257 16.4733 11.3843 16.526 11.5172 16.526H16.5269C16.6597 16.526 16.7871 16.4733 16.881 16.3793C16.9749 16.2854 17.0277 16.158 17.0277 16.0252C17.0277 15.8924 16.9749 15.765 16.881 15.6711C16.7871 15.5772 16.6597 15.5244 16.5269 15.5244H11.5172ZM11.5172 17.5276C11.3842 17.5276 11.2567 17.5804 11.1627 17.6744C11.0687 17.7684 11.0159 17.8959 11.0159 18.0289C11.0159 18.1618 11.0687 18.2893 11.1627 18.3833C11.2567 18.4773 11.3842 18.5301 11.5172 18.5301H16.5269C16.6597 18.5301 16.7871 18.4774 16.881 18.3834C16.9749 18.2895 17.0277 18.1621 17.0277 18.0293C17.0277 17.8965 16.9749 17.7691 16.881 17.6752C16.7871 17.5813 16.6597 17.5285 16.5269 17.5285L11.5172 17.5276Z" fill="black"/>
</svg>
