<svg width="24" height="24" viewBox="0 0 24 24" fill="none" xmlns="http://www.w3.org/2000/svg">
<path d="M7.455 2.99998C7.42216 2.94272 7.37479 2.89513 7.31767 2.86204C7.26054 2.82895 7.1957 2.81152 7.12969 2.81152C7.06367 2.81152 6.99883 2.82895 6.94171 2.86204C6.88458 2.89513 6.83721 2.94272 6.80437 2.99998L2.64375 10.3125C2.61077 10.3696 2.59344 10.4344 2.59351 10.5004C2.59357 10.5663 2.61103 10.6311 2.64412 10.6881C2.67721 10.7452 2.72476 10.7925 2.78198 10.8253C2.83919 10.8581 2.90405 10.8752 2.97 10.875H11.2894C11.3561 10.8769 11.4222 10.861 11.4807 10.8289C11.5392 10.7968 11.5882 10.7496 11.6224 10.6923C11.6566 10.635 11.6749 10.5695 11.6753 10.5027C11.6758 10.436 11.6584 10.3703 11.625 10.3125L7.455 2.99998ZM3.61312 10.125L7.125 3.93748L10.6444 10.125H3.61312ZM15 10.875H19.5C19.8978 10.875 20.2794 10.7169 20.5607 10.4356C20.842 10.1543 21 9.77281 21 9.37498V4.87498C21 4.47716 20.842 4.09563 20.5607 3.81432C20.2794 3.53302 19.8978 3.37498 19.5 3.37498H15C14.6022 3.37498 14.2206 3.53302 13.9393 3.81432C13.658 4.09563 13.5 4.47716 13.5 4.87498V9.37498C13.5 9.77281 13.658 10.1543 13.9393 10.4356C14.2206 10.7169 14.6022 10.875 15 10.875ZM14.25 4.87498C14.25 4.67607 14.329 4.48531 14.4697 4.34465C14.6103 4.204 14.8011 4.12498 15 4.12498H19.5C19.6989 4.12498 19.8897 4.204 20.0303 4.34465C20.171 4.48531 20.25 4.67607 20.25 4.87498V9.37498C20.25 9.5739 20.171 9.76466 20.0303 9.90531C19.8897 10.046 19.6989 10.125 19.5 10.125H15C14.8011 10.125 14.6103 10.046 14.4697 9.90531C14.329 9.76466 14.25 9.5739 14.25 9.37498V4.87498ZM21.2644 15.8606L18.2644 12.8606C18.1312 12.7274 17.973 12.6217 17.799 12.5496C17.6249 12.4775 17.4384 12.4404 17.25 12.4404C17.0616 12.4404 16.8751 12.4775 16.701 12.5496C16.527 12.6217 16.3688 12.7274 16.2356 12.8606L13.2356 15.8606C12.9675 16.1301 12.8169 16.4948 12.8169 16.875C12.8169 17.2552 12.9675 17.6199 13.2356 17.8894L16.2356 20.8894C16.3688 21.0226 16.527 21.1283 16.701 21.2004C16.8751 21.2725 17.0616 21.3096 17.25 21.3096C17.4384 21.3096 17.6249 21.2725 17.799 21.2004C17.973 21.1283 18.1312 21.0226 18.2644 20.8894L21.2644 17.8894C21.5321 17.6196 21.6823 17.255 21.6823 16.875C21.6823 16.495 21.5321 16.1303 21.2644 15.8606ZM20.7337 17.3606L17.7337 20.3606C17.6052 20.4884 17.4313 20.5601 17.25 20.5601C17.0687 20.5601 16.8948 20.4884 16.7662 20.3606L13.7662 17.3606C13.7025 17.2972 13.652 17.2218 13.6175 17.1388C13.583 17.0558 13.5652 16.9668 13.5652 16.8769C13.5652 16.787 13.583 16.6979 13.6175 16.6149C13.652 16.5319 13.7025 16.4565 13.7662 16.3931L16.7662 13.3931C16.8962 13.268 17.0696 13.1981 17.25 13.1981C17.4304 13.1981 17.6038 13.268 17.7337 13.3931L20.7337 16.3931C20.862 16.5214 20.934 16.6954 20.934 16.8769C20.934 17.0583 20.862 17.2323 20.7337 17.3606ZM7.125 12.75C6.30915 12.75 5.51162 12.9919 4.83327 13.4452C4.15492 13.8984 3.62621 14.5427 3.31399 15.2964C3.00178 16.0502 2.92009 16.8796 3.07926 17.6797C3.23842 18.4799 3.63129 19.2149 4.20818 19.7918C4.78507 20.3687 5.52008 20.7616 6.32025 20.9207C7.12042 21.0799 7.94982 20.9982 8.70357 20.686C9.45731 20.3738 10.1015 19.8451 10.5548 19.1667C11.0081 18.4884 11.25 17.6908 11.25 16.875C11.25 16.3333 11.1433 15.7969 10.936 15.2964C10.7287 14.7959 10.4249 14.3412 10.0418 13.9582C9.65877 13.5751 9.20404 13.2713 8.70357 13.064C8.2031 12.8567 7.6667 12.75 7.125 12.75ZM7.125 20.25C6.45749 20.25 5.80496 20.052 5.24995 19.6812C4.69493 19.3103 4.26235 18.7832 4.0069 18.1665C3.75146 17.5498 3.68462 16.8712 3.81485 16.2166C3.94507 15.5619 4.26651 14.9605 4.73851 14.4885C5.21051 14.0165 5.81188 13.6951 6.46657 13.5648C7.12125 13.4346 7.79985 13.5014 8.41655 13.7569C9.03326 14.0123 9.56036 14.4449 9.93121 14.9999C10.3021 15.555 10.5 16.2075 10.5 16.875C10.5 17.7701 10.1444 18.6285 9.51148 19.2615C8.87855 19.8944 8.0201 20.25 7.125 20.25Z" fill="black"/>
</svg>
